%TF.GenerationSoftware,KiCad,Pcbnew,9.0.0-9.0.0-2~ubuntu24.04.1*%
%TF.CreationDate,2025-03-29T11:10:49-07:00*%
%TF.ProjectId,aud_chain2,6175645f-6368-4616-996e-322e6b696361,rev?*%
%TF.SameCoordinates,Original*%
%TF.FileFunction,Drillmap*%
%TF.FilePolarity,Positive*%
%FSLAX45Y45*%
G04 Gerber Fmt 4.5, Leading zero omitted, Abs format (unit mm)*
G04 Created by KiCad (PCBNEW 9.0.0-9.0.0-2~ubuntu24.04.1) date 2025-03-29 11:10:49*
%MOMM*%
%LPD*%
G01*
G04 APERTURE LIST*
%ADD10C,0.050000*%
%ADD11C,0.200000*%
%ADD12C,0.220000*%
G04 APERTURE END LIST*
D10*
X5080000Y-12700000D02*
X9588500Y-12700000D01*
X9588500Y-15621000D01*
X5080000Y-15621000D01*
X5080000Y-12700000D01*
D11*
D12*
X5224000Y-12844000D02*
X5444000Y-13064000D01*
X5444000Y-12844000D02*
X5224000Y-13064000D01*
X5224000Y-15193500D02*
X5444000Y-15413500D01*
X5444000Y-15193500D02*
X5224000Y-15413500D01*
X9224500Y-12844000D02*
X9444500Y-13064000D01*
X9444500Y-12844000D02*
X9224500Y-13064000D01*
X9224500Y-15257000D02*
X9444500Y-15477000D01*
X9444500Y-15257000D02*
X9224500Y-15477000D01*
D11*
X5338277Y-15934984D02*
X5338277Y-15734984D01*
X5338277Y-15734984D02*
X5385896Y-15734984D01*
X5385896Y-15734984D02*
X5414467Y-15744508D01*
X5414467Y-15744508D02*
X5433515Y-15763555D01*
X5433515Y-15763555D02*
X5443039Y-15782603D01*
X5443039Y-15782603D02*
X5452563Y-15820698D01*
X5452563Y-15820698D02*
X5452563Y-15849269D01*
X5452563Y-15849269D02*
X5443039Y-15887365D01*
X5443039Y-15887365D02*
X5433515Y-15906412D01*
X5433515Y-15906412D02*
X5414467Y-15925460D01*
X5414467Y-15925460D02*
X5385896Y-15934984D01*
X5385896Y-15934984D02*
X5338277Y-15934984D01*
X5538277Y-15934984D02*
X5538277Y-15801650D01*
X5538277Y-15839746D02*
X5547801Y-15820698D01*
X5547801Y-15820698D02*
X5557324Y-15811174D01*
X5557324Y-15811174D02*
X5576372Y-15801650D01*
X5576372Y-15801650D02*
X5595420Y-15801650D01*
X5662086Y-15934984D02*
X5662086Y-15801650D01*
X5662086Y-15734984D02*
X5652562Y-15744508D01*
X5652562Y-15744508D02*
X5662086Y-15754031D01*
X5662086Y-15754031D02*
X5671610Y-15744508D01*
X5671610Y-15744508D02*
X5662086Y-15734984D01*
X5662086Y-15734984D02*
X5662086Y-15754031D01*
X5785896Y-15934984D02*
X5766848Y-15925460D01*
X5766848Y-15925460D02*
X5757324Y-15906412D01*
X5757324Y-15906412D02*
X5757324Y-15734984D01*
X5890658Y-15934984D02*
X5871610Y-15925460D01*
X5871610Y-15925460D02*
X5862086Y-15906412D01*
X5862086Y-15906412D02*
X5862086Y-15734984D01*
X6119229Y-15934984D02*
X6119229Y-15734984D01*
X6119229Y-15734984D02*
X6185896Y-15877841D01*
X6185896Y-15877841D02*
X6252562Y-15734984D01*
X6252562Y-15734984D02*
X6252562Y-15934984D01*
X6433515Y-15934984D02*
X6433515Y-15830222D01*
X6433515Y-15830222D02*
X6423991Y-15811174D01*
X6423991Y-15811174D02*
X6404943Y-15801650D01*
X6404943Y-15801650D02*
X6366848Y-15801650D01*
X6366848Y-15801650D02*
X6347801Y-15811174D01*
X6433515Y-15925460D02*
X6414467Y-15934984D01*
X6414467Y-15934984D02*
X6366848Y-15934984D01*
X6366848Y-15934984D02*
X6347801Y-15925460D01*
X6347801Y-15925460D02*
X6338277Y-15906412D01*
X6338277Y-15906412D02*
X6338277Y-15887365D01*
X6338277Y-15887365D02*
X6347801Y-15868317D01*
X6347801Y-15868317D02*
X6366848Y-15858793D01*
X6366848Y-15858793D02*
X6414467Y-15858793D01*
X6414467Y-15858793D02*
X6433515Y-15849269D01*
X6528753Y-15801650D02*
X6528753Y-16001650D01*
X6528753Y-15811174D02*
X6547801Y-15801650D01*
X6547801Y-15801650D02*
X6585896Y-15801650D01*
X6585896Y-15801650D02*
X6604943Y-15811174D01*
X6604943Y-15811174D02*
X6614467Y-15820698D01*
X6614467Y-15820698D02*
X6623991Y-15839746D01*
X6623991Y-15839746D02*
X6623991Y-15896888D01*
X6623991Y-15896888D02*
X6614467Y-15915936D01*
X6614467Y-15915936D02*
X6604943Y-15925460D01*
X6604943Y-15925460D02*
X6585896Y-15934984D01*
X6585896Y-15934984D02*
X6547801Y-15934984D01*
X6547801Y-15934984D02*
X6528753Y-15925460D01*
X6709705Y-15915936D02*
X6719229Y-15925460D01*
X6719229Y-15925460D02*
X6709705Y-15934984D01*
X6709705Y-15934984D02*
X6700182Y-15925460D01*
X6700182Y-15925460D02*
X6709705Y-15915936D01*
X6709705Y-15915936D02*
X6709705Y-15934984D01*
X6709705Y-15811174D02*
X6719229Y-15820698D01*
X6719229Y-15820698D02*
X6709705Y-15830222D01*
X6709705Y-15830222D02*
X6700182Y-15820698D01*
X6700182Y-15820698D02*
X6709705Y-15811174D01*
X6709705Y-15811174D02*
X6709705Y-15830222D01*
X4877500Y-16163500D02*
X5077500Y-16363500D01*
X5077500Y-16163500D02*
X4877500Y-16363500D01*
X5328753Y-16174031D02*
X5338277Y-16164508D01*
X5338277Y-16164508D02*
X5357324Y-16154984D01*
X5357324Y-16154984D02*
X5404944Y-16154984D01*
X5404944Y-16154984D02*
X5423991Y-16164508D01*
X5423991Y-16164508D02*
X5433515Y-16174031D01*
X5433515Y-16174031D02*
X5443039Y-16193079D01*
X5443039Y-16193079D02*
X5443039Y-16212127D01*
X5443039Y-16212127D02*
X5433515Y-16240698D01*
X5433515Y-16240698D02*
X5319229Y-16354984D01*
X5319229Y-16354984D02*
X5443039Y-16354984D01*
X5528753Y-16335936D02*
X5538277Y-16345460D01*
X5538277Y-16345460D02*
X5528753Y-16354984D01*
X5528753Y-16354984D02*
X5519229Y-16345460D01*
X5519229Y-16345460D02*
X5528753Y-16335936D01*
X5528753Y-16335936D02*
X5528753Y-16354984D01*
X5614467Y-16174031D02*
X5623991Y-16164508D01*
X5623991Y-16164508D02*
X5643039Y-16154984D01*
X5643039Y-16154984D02*
X5690658Y-16154984D01*
X5690658Y-16154984D02*
X5709705Y-16164508D01*
X5709705Y-16164508D02*
X5719229Y-16174031D01*
X5719229Y-16174031D02*
X5728753Y-16193079D01*
X5728753Y-16193079D02*
X5728753Y-16212127D01*
X5728753Y-16212127D02*
X5719229Y-16240698D01*
X5719229Y-16240698D02*
X5604943Y-16354984D01*
X5604943Y-16354984D02*
X5728753Y-16354984D01*
X5852562Y-16154984D02*
X5871610Y-16154984D01*
X5871610Y-16154984D02*
X5890658Y-16164508D01*
X5890658Y-16164508D02*
X5900182Y-16174031D01*
X5900182Y-16174031D02*
X5909705Y-16193079D01*
X5909705Y-16193079D02*
X5919229Y-16231174D01*
X5919229Y-16231174D02*
X5919229Y-16278793D01*
X5919229Y-16278793D02*
X5909705Y-16316888D01*
X5909705Y-16316888D02*
X5900182Y-16335936D01*
X5900182Y-16335936D02*
X5890658Y-16345460D01*
X5890658Y-16345460D02*
X5871610Y-16354984D01*
X5871610Y-16354984D02*
X5852562Y-16354984D01*
X5852562Y-16354984D02*
X5833515Y-16345460D01*
X5833515Y-16345460D02*
X5823991Y-16335936D01*
X5823991Y-16335936D02*
X5814467Y-16316888D01*
X5814467Y-16316888D02*
X5804943Y-16278793D01*
X5804943Y-16278793D02*
X5804943Y-16231174D01*
X5804943Y-16231174D02*
X5814467Y-16193079D01*
X5814467Y-16193079D02*
X5823991Y-16174031D01*
X5823991Y-16174031D02*
X5833515Y-16164508D01*
X5833515Y-16164508D02*
X5852562Y-16154984D01*
X6043039Y-16154984D02*
X6062086Y-16154984D01*
X6062086Y-16154984D02*
X6081134Y-16164508D01*
X6081134Y-16164508D02*
X6090658Y-16174031D01*
X6090658Y-16174031D02*
X6100182Y-16193079D01*
X6100182Y-16193079D02*
X6109705Y-16231174D01*
X6109705Y-16231174D02*
X6109705Y-16278793D01*
X6109705Y-16278793D02*
X6100182Y-16316888D01*
X6100182Y-16316888D02*
X6090658Y-16335936D01*
X6090658Y-16335936D02*
X6081134Y-16345460D01*
X6081134Y-16345460D02*
X6062086Y-16354984D01*
X6062086Y-16354984D02*
X6043039Y-16354984D01*
X6043039Y-16354984D02*
X6023991Y-16345460D01*
X6023991Y-16345460D02*
X6014467Y-16335936D01*
X6014467Y-16335936D02*
X6004943Y-16316888D01*
X6004943Y-16316888D02*
X5995420Y-16278793D01*
X5995420Y-16278793D02*
X5995420Y-16231174D01*
X5995420Y-16231174D02*
X6004943Y-16193079D01*
X6004943Y-16193079D02*
X6014467Y-16174031D01*
X6014467Y-16174031D02*
X6023991Y-16164508D01*
X6023991Y-16164508D02*
X6043039Y-16154984D01*
X6195420Y-16354984D02*
X6195420Y-16221650D01*
X6195420Y-16240698D02*
X6204943Y-16231174D01*
X6204943Y-16231174D02*
X6223991Y-16221650D01*
X6223991Y-16221650D02*
X6252563Y-16221650D01*
X6252563Y-16221650D02*
X6271610Y-16231174D01*
X6271610Y-16231174D02*
X6281134Y-16250222D01*
X6281134Y-16250222D02*
X6281134Y-16354984D01*
X6281134Y-16250222D02*
X6290658Y-16231174D01*
X6290658Y-16231174D02*
X6309705Y-16221650D01*
X6309705Y-16221650D02*
X6338277Y-16221650D01*
X6338277Y-16221650D02*
X6357324Y-16231174D01*
X6357324Y-16231174D02*
X6366848Y-16250222D01*
X6366848Y-16250222D02*
X6366848Y-16354984D01*
X6462086Y-16354984D02*
X6462086Y-16221650D01*
X6462086Y-16240698D02*
X6471610Y-16231174D01*
X6471610Y-16231174D02*
X6490658Y-16221650D01*
X6490658Y-16221650D02*
X6519229Y-16221650D01*
X6519229Y-16221650D02*
X6538277Y-16231174D01*
X6538277Y-16231174D02*
X6547801Y-16250222D01*
X6547801Y-16250222D02*
X6547801Y-16354984D01*
X6547801Y-16250222D02*
X6557324Y-16231174D01*
X6557324Y-16231174D02*
X6576372Y-16221650D01*
X6576372Y-16221650D02*
X6604943Y-16221650D01*
X6604943Y-16221650D02*
X6623991Y-16231174D01*
X6623991Y-16231174D02*
X6633515Y-16250222D01*
X6633515Y-16250222D02*
X6633515Y-16354984D01*
X7023991Y-16145460D02*
X6852563Y-16402603D01*
X7281134Y-16154984D02*
X7300182Y-16154984D01*
X7300182Y-16154984D02*
X7319229Y-16164508D01*
X7319229Y-16164508D02*
X7328753Y-16174031D01*
X7328753Y-16174031D02*
X7338277Y-16193079D01*
X7338277Y-16193079D02*
X7347801Y-16231174D01*
X7347801Y-16231174D02*
X7347801Y-16278793D01*
X7347801Y-16278793D02*
X7338277Y-16316888D01*
X7338277Y-16316888D02*
X7328753Y-16335936D01*
X7328753Y-16335936D02*
X7319229Y-16345460D01*
X7319229Y-16345460D02*
X7300182Y-16354984D01*
X7300182Y-16354984D02*
X7281134Y-16354984D01*
X7281134Y-16354984D02*
X7262086Y-16345460D01*
X7262086Y-16345460D02*
X7252563Y-16335936D01*
X7252563Y-16335936D02*
X7243039Y-16316888D01*
X7243039Y-16316888D02*
X7233515Y-16278793D01*
X7233515Y-16278793D02*
X7233515Y-16231174D01*
X7233515Y-16231174D02*
X7243039Y-16193079D01*
X7243039Y-16193079D02*
X7252563Y-16174031D01*
X7252563Y-16174031D02*
X7262086Y-16164508D01*
X7262086Y-16164508D02*
X7281134Y-16154984D01*
X7433515Y-16335936D02*
X7443039Y-16345460D01*
X7443039Y-16345460D02*
X7433515Y-16354984D01*
X7433515Y-16354984D02*
X7423991Y-16345460D01*
X7423991Y-16345460D02*
X7433515Y-16335936D01*
X7433515Y-16335936D02*
X7433515Y-16354984D01*
X7566848Y-16154984D02*
X7585896Y-16154984D01*
X7585896Y-16154984D02*
X7604944Y-16164508D01*
X7604944Y-16164508D02*
X7614467Y-16174031D01*
X7614467Y-16174031D02*
X7623991Y-16193079D01*
X7623991Y-16193079D02*
X7633515Y-16231174D01*
X7633515Y-16231174D02*
X7633515Y-16278793D01*
X7633515Y-16278793D02*
X7623991Y-16316888D01*
X7623991Y-16316888D02*
X7614467Y-16335936D01*
X7614467Y-16335936D02*
X7604944Y-16345460D01*
X7604944Y-16345460D02*
X7585896Y-16354984D01*
X7585896Y-16354984D02*
X7566848Y-16354984D01*
X7566848Y-16354984D02*
X7547801Y-16345460D01*
X7547801Y-16345460D02*
X7538277Y-16335936D01*
X7538277Y-16335936D02*
X7528753Y-16316888D01*
X7528753Y-16316888D02*
X7519229Y-16278793D01*
X7519229Y-16278793D02*
X7519229Y-16231174D01*
X7519229Y-16231174D02*
X7528753Y-16193079D01*
X7528753Y-16193079D02*
X7538277Y-16174031D01*
X7538277Y-16174031D02*
X7547801Y-16164508D01*
X7547801Y-16164508D02*
X7566848Y-16154984D01*
X7747801Y-16240698D02*
X7728753Y-16231174D01*
X7728753Y-16231174D02*
X7719229Y-16221650D01*
X7719229Y-16221650D02*
X7709706Y-16202603D01*
X7709706Y-16202603D02*
X7709706Y-16193079D01*
X7709706Y-16193079D02*
X7719229Y-16174031D01*
X7719229Y-16174031D02*
X7728753Y-16164508D01*
X7728753Y-16164508D02*
X7747801Y-16154984D01*
X7747801Y-16154984D02*
X7785896Y-16154984D01*
X7785896Y-16154984D02*
X7804944Y-16164508D01*
X7804944Y-16164508D02*
X7814467Y-16174031D01*
X7814467Y-16174031D02*
X7823991Y-16193079D01*
X7823991Y-16193079D02*
X7823991Y-16202603D01*
X7823991Y-16202603D02*
X7814467Y-16221650D01*
X7814467Y-16221650D02*
X7804944Y-16231174D01*
X7804944Y-16231174D02*
X7785896Y-16240698D01*
X7785896Y-16240698D02*
X7747801Y-16240698D01*
X7747801Y-16240698D02*
X7728753Y-16250222D01*
X7728753Y-16250222D02*
X7719229Y-16259746D01*
X7719229Y-16259746D02*
X7709706Y-16278793D01*
X7709706Y-16278793D02*
X7709706Y-16316888D01*
X7709706Y-16316888D02*
X7719229Y-16335936D01*
X7719229Y-16335936D02*
X7728753Y-16345460D01*
X7728753Y-16345460D02*
X7747801Y-16354984D01*
X7747801Y-16354984D02*
X7785896Y-16354984D01*
X7785896Y-16354984D02*
X7804944Y-16345460D01*
X7804944Y-16345460D02*
X7814467Y-16335936D01*
X7814467Y-16335936D02*
X7823991Y-16316888D01*
X7823991Y-16316888D02*
X7823991Y-16278793D01*
X7823991Y-16278793D02*
X7814467Y-16259746D01*
X7814467Y-16259746D02*
X7804944Y-16250222D01*
X7804944Y-16250222D02*
X7785896Y-16240698D01*
X7995420Y-16154984D02*
X7957325Y-16154984D01*
X7957325Y-16154984D02*
X7938277Y-16164508D01*
X7938277Y-16164508D02*
X7928753Y-16174031D01*
X7928753Y-16174031D02*
X7909706Y-16202603D01*
X7909706Y-16202603D02*
X7900182Y-16240698D01*
X7900182Y-16240698D02*
X7900182Y-16316888D01*
X7900182Y-16316888D02*
X7909706Y-16335936D01*
X7909706Y-16335936D02*
X7919229Y-16345460D01*
X7919229Y-16345460D02*
X7938277Y-16354984D01*
X7938277Y-16354984D02*
X7976372Y-16354984D01*
X7976372Y-16354984D02*
X7995420Y-16345460D01*
X7995420Y-16345460D02*
X8004944Y-16335936D01*
X8004944Y-16335936D02*
X8014467Y-16316888D01*
X8014467Y-16316888D02*
X8014467Y-16269269D01*
X8014467Y-16269269D02*
X8004944Y-16250222D01*
X8004944Y-16250222D02*
X7995420Y-16240698D01*
X7995420Y-16240698D02*
X7976372Y-16231174D01*
X7976372Y-16231174D02*
X7938277Y-16231174D01*
X7938277Y-16231174D02*
X7919229Y-16240698D01*
X7919229Y-16240698D02*
X7909706Y-16250222D01*
X7909706Y-16250222D02*
X7900182Y-16269269D01*
X8185896Y-16154984D02*
X8147801Y-16154984D01*
X8147801Y-16154984D02*
X8128753Y-16164508D01*
X8128753Y-16164508D02*
X8119229Y-16174031D01*
X8119229Y-16174031D02*
X8100182Y-16202603D01*
X8100182Y-16202603D02*
X8090658Y-16240698D01*
X8090658Y-16240698D02*
X8090658Y-16316888D01*
X8090658Y-16316888D02*
X8100182Y-16335936D01*
X8100182Y-16335936D02*
X8109706Y-16345460D01*
X8109706Y-16345460D02*
X8128753Y-16354984D01*
X8128753Y-16354984D02*
X8166848Y-16354984D01*
X8166848Y-16354984D02*
X8185896Y-16345460D01*
X8185896Y-16345460D02*
X8195420Y-16335936D01*
X8195420Y-16335936D02*
X8204944Y-16316888D01*
X8204944Y-16316888D02*
X8204944Y-16269269D01*
X8204944Y-16269269D02*
X8195420Y-16250222D01*
X8195420Y-16250222D02*
X8185896Y-16240698D01*
X8185896Y-16240698D02*
X8166848Y-16231174D01*
X8166848Y-16231174D02*
X8128753Y-16231174D01*
X8128753Y-16231174D02*
X8109706Y-16240698D01*
X8109706Y-16240698D02*
X8100182Y-16250222D01*
X8100182Y-16250222D02*
X8090658Y-16269269D01*
X8281134Y-16154984D02*
X8281134Y-16193079D01*
X8357325Y-16154984D02*
X8357325Y-16193079D01*
X8652563Y-16431174D02*
X8643039Y-16421650D01*
X8643039Y-16421650D02*
X8623991Y-16393079D01*
X8623991Y-16393079D02*
X8614468Y-16374031D01*
X8614468Y-16374031D02*
X8604944Y-16345460D01*
X8604944Y-16345460D02*
X8595420Y-16297841D01*
X8595420Y-16297841D02*
X8595420Y-16259746D01*
X8595420Y-16259746D02*
X8604944Y-16212127D01*
X8604944Y-16212127D02*
X8614468Y-16183555D01*
X8614468Y-16183555D02*
X8623991Y-16164508D01*
X8623991Y-16164508D02*
X8643039Y-16135936D01*
X8643039Y-16135936D02*
X8652563Y-16126412D01*
X8814468Y-16221650D02*
X8814468Y-16354984D01*
X8766849Y-16145460D02*
X8719230Y-16288317D01*
X8719230Y-16288317D02*
X8843039Y-16288317D01*
X9071611Y-16354984D02*
X9071611Y-16154984D01*
X9157325Y-16354984D02*
X9157325Y-16250222D01*
X9157325Y-16250222D02*
X9147801Y-16231174D01*
X9147801Y-16231174D02*
X9128753Y-16221650D01*
X9128753Y-16221650D02*
X9100182Y-16221650D01*
X9100182Y-16221650D02*
X9081134Y-16231174D01*
X9081134Y-16231174D02*
X9071611Y-16240698D01*
X9281134Y-16354984D02*
X9262087Y-16345460D01*
X9262087Y-16345460D02*
X9252563Y-16335936D01*
X9252563Y-16335936D02*
X9243039Y-16316888D01*
X9243039Y-16316888D02*
X9243039Y-16259746D01*
X9243039Y-16259746D02*
X9252563Y-16240698D01*
X9252563Y-16240698D02*
X9262087Y-16231174D01*
X9262087Y-16231174D02*
X9281134Y-16221650D01*
X9281134Y-16221650D02*
X9309706Y-16221650D01*
X9309706Y-16221650D02*
X9328753Y-16231174D01*
X9328753Y-16231174D02*
X9338277Y-16240698D01*
X9338277Y-16240698D02*
X9347801Y-16259746D01*
X9347801Y-16259746D02*
X9347801Y-16316888D01*
X9347801Y-16316888D02*
X9338277Y-16335936D01*
X9338277Y-16335936D02*
X9328753Y-16345460D01*
X9328753Y-16345460D02*
X9309706Y-16354984D01*
X9309706Y-16354984D02*
X9281134Y-16354984D01*
X9462087Y-16354984D02*
X9443039Y-16345460D01*
X9443039Y-16345460D02*
X9433515Y-16326412D01*
X9433515Y-16326412D02*
X9433515Y-16154984D01*
X9614468Y-16345460D02*
X9595420Y-16354984D01*
X9595420Y-16354984D02*
X9557325Y-16354984D01*
X9557325Y-16354984D02*
X9538277Y-16345460D01*
X9538277Y-16345460D02*
X9528753Y-16326412D01*
X9528753Y-16326412D02*
X9528753Y-16250222D01*
X9528753Y-16250222D02*
X9538277Y-16231174D01*
X9538277Y-16231174D02*
X9557325Y-16221650D01*
X9557325Y-16221650D02*
X9595420Y-16221650D01*
X9595420Y-16221650D02*
X9614468Y-16231174D01*
X9614468Y-16231174D02*
X9623992Y-16250222D01*
X9623992Y-16250222D02*
X9623992Y-16269269D01*
X9623992Y-16269269D02*
X9528753Y-16288317D01*
X9700182Y-16345460D02*
X9719230Y-16354984D01*
X9719230Y-16354984D02*
X9757325Y-16354984D01*
X9757325Y-16354984D02*
X9776373Y-16345460D01*
X9776373Y-16345460D02*
X9785896Y-16326412D01*
X9785896Y-16326412D02*
X9785896Y-16316888D01*
X9785896Y-16316888D02*
X9776373Y-16297841D01*
X9776373Y-16297841D02*
X9757325Y-16288317D01*
X9757325Y-16288317D02*
X9728753Y-16288317D01*
X9728753Y-16288317D02*
X9709706Y-16278793D01*
X9709706Y-16278793D02*
X9700182Y-16259746D01*
X9700182Y-16259746D02*
X9700182Y-16250222D01*
X9700182Y-16250222D02*
X9709706Y-16231174D01*
X9709706Y-16231174D02*
X9728753Y-16221650D01*
X9728753Y-16221650D02*
X9757325Y-16221650D01*
X9757325Y-16221650D02*
X9776373Y-16231174D01*
X9852563Y-16431174D02*
X9862087Y-16421650D01*
X9862087Y-16421650D02*
X9881134Y-16393079D01*
X9881134Y-16393079D02*
X9890658Y-16374031D01*
X9890658Y-16374031D02*
X9900182Y-16345460D01*
X9900182Y-16345460D02*
X9909706Y-16297841D01*
X9909706Y-16297841D02*
X9909706Y-16259746D01*
X9909706Y-16259746D02*
X9900182Y-16212127D01*
X9900182Y-16212127D02*
X9890658Y-16183555D01*
X9890658Y-16183555D02*
X9881134Y-16164508D01*
X9881134Y-16164508D02*
X9862087Y-16135936D01*
X9862087Y-16135936D02*
X9852563Y-16126412D01*
X10214468Y-16431174D02*
X10204944Y-16421650D01*
X10204944Y-16421650D02*
X10185896Y-16393079D01*
X10185896Y-16393079D02*
X10176373Y-16374031D01*
X10176373Y-16374031D02*
X10166849Y-16345460D01*
X10166849Y-16345460D02*
X10157325Y-16297841D01*
X10157325Y-16297841D02*
X10157325Y-16259746D01*
X10157325Y-16259746D02*
X10166849Y-16212127D01*
X10166849Y-16212127D02*
X10176373Y-16183555D01*
X10176373Y-16183555D02*
X10185896Y-16164508D01*
X10185896Y-16164508D02*
X10204944Y-16135936D01*
X10204944Y-16135936D02*
X10214468Y-16126412D01*
X10290658Y-16221650D02*
X10290658Y-16354984D01*
X10290658Y-16240698D02*
X10300182Y-16231174D01*
X10300182Y-16231174D02*
X10319230Y-16221650D01*
X10319230Y-16221650D02*
X10347801Y-16221650D01*
X10347801Y-16221650D02*
X10366849Y-16231174D01*
X10366849Y-16231174D02*
X10376373Y-16250222D01*
X10376373Y-16250222D02*
X10376373Y-16354984D01*
X10500182Y-16354984D02*
X10481134Y-16345460D01*
X10481134Y-16345460D02*
X10471611Y-16335936D01*
X10471611Y-16335936D02*
X10462087Y-16316888D01*
X10462087Y-16316888D02*
X10462087Y-16259746D01*
X10462087Y-16259746D02*
X10471611Y-16240698D01*
X10471611Y-16240698D02*
X10481134Y-16231174D01*
X10481134Y-16231174D02*
X10500182Y-16221650D01*
X10500182Y-16221650D02*
X10528754Y-16221650D01*
X10528754Y-16221650D02*
X10547801Y-16231174D01*
X10547801Y-16231174D02*
X10557325Y-16240698D01*
X10557325Y-16240698D02*
X10566849Y-16259746D01*
X10566849Y-16259746D02*
X10566849Y-16316888D01*
X10566849Y-16316888D02*
X10557325Y-16335936D01*
X10557325Y-16335936D02*
X10547801Y-16345460D01*
X10547801Y-16345460D02*
X10528754Y-16354984D01*
X10528754Y-16354984D02*
X10500182Y-16354984D01*
X10623992Y-16221650D02*
X10700182Y-16221650D01*
X10652563Y-16154984D02*
X10652563Y-16326412D01*
X10652563Y-16326412D02*
X10662087Y-16345460D01*
X10662087Y-16345460D02*
X10681134Y-16354984D01*
X10681134Y-16354984D02*
X10700182Y-16354984D01*
X10919230Y-16221650D02*
X10919230Y-16421650D01*
X10919230Y-16231174D02*
X10938277Y-16221650D01*
X10938277Y-16221650D02*
X10976373Y-16221650D01*
X10976373Y-16221650D02*
X10995420Y-16231174D01*
X10995420Y-16231174D02*
X11004944Y-16240698D01*
X11004944Y-16240698D02*
X11014468Y-16259746D01*
X11014468Y-16259746D02*
X11014468Y-16316888D01*
X11014468Y-16316888D02*
X11004944Y-16335936D01*
X11004944Y-16335936D02*
X10995420Y-16345460D01*
X10995420Y-16345460D02*
X10976373Y-16354984D01*
X10976373Y-16354984D02*
X10938277Y-16354984D01*
X10938277Y-16354984D02*
X10919230Y-16345460D01*
X11128754Y-16354984D02*
X11109706Y-16345460D01*
X11109706Y-16345460D02*
X11100182Y-16326412D01*
X11100182Y-16326412D02*
X11100182Y-16154984D01*
X11290658Y-16354984D02*
X11290658Y-16250222D01*
X11290658Y-16250222D02*
X11281134Y-16231174D01*
X11281134Y-16231174D02*
X11262087Y-16221650D01*
X11262087Y-16221650D02*
X11223992Y-16221650D01*
X11223992Y-16221650D02*
X11204944Y-16231174D01*
X11290658Y-16345460D02*
X11271611Y-16354984D01*
X11271611Y-16354984D02*
X11223992Y-16354984D01*
X11223992Y-16354984D02*
X11204944Y-16345460D01*
X11204944Y-16345460D02*
X11195420Y-16326412D01*
X11195420Y-16326412D02*
X11195420Y-16307365D01*
X11195420Y-16307365D02*
X11204944Y-16288317D01*
X11204944Y-16288317D02*
X11223992Y-16278793D01*
X11223992Y-16278793D02*
X11271611Y-16278793D01*
X11271611Y-16278793D02*
X11290658Y-16269269D01*
X11357325Y-16221650D02*
X11433515Y-16221650D01*
X11385896Y-16154984D02*
X11385896Y-16326412D01*
X11385896Y-16326412D02*
X11395420Y-16345460D01*
X11395420Y-16345460D02*
X11414468Y-16354984D01*
X11414468Y-16354984D02*
X11433515Y-16354984D01*
X11576373Y-16345460D02*
X11557325Y-16354984D01*
X11557325Y-16354984D02*
X11519230Y-16354984D01*
X11519230Y-16354984D02*
X11500182Y-16345460D01*
X11500182Y-16345460D02*
X11490658Y-16326412D01*
X11490658Y-16326412D02*
X11490658Y-16250222D01*
X11490658Y-16250222D02*
X11500182Y-16231174D01*
X11500182Y-16231174D02*
X11519230Y-16221650D01*
X11519230Y-16221650D02*
X11557325Y-16221650D01*
X11557325Y-16221650D02*
X11576373Y-16231174D01*
X11576373Y-16231174D02*
X11585896Y-16250222D01*
X11585896Y-16250222D02*
X11585896Y-16269269D01*
X11585896Y-16269269D02*
X11490658Y-16288317D01*
X11757325Y-16354984D02*
X11757325Y-16154984D01*
X11757325Y-16345460D02*
X11738277Y-16354984D01*
X11738277Y-16354984D02*
X11700182Y-16354984D01*
X11700182Y-16354984D02*
X11681134Y-16345460D01*
X11681134Y-16345460D02*
X11671611Y-16335936D01*
X11671611Y-16335936D02*
X11662087Y-16316888D01*
X11662087Y-16316888D02*
X11662087Y-16259746D01*
X11662087Y-16259746D02*
X11671611Y-16240698D01*
X11671611Y-16240698D02*
X11681134Y-16231174D01*
X11681134Y-16231174D02*
X11700182Y-16221650D01*
X11700182Y-16221650D02*
X11738277Y-16221650D01*
X11738277Y-16221650D02*
X11757325Y-16231174D01*
X11833515Y-16431174D02*
X11843039Y-16421650D01*
X11843039Y-16421650D02*
X11862087Y-16393079D01*
X11862087Y-16393079D02*
X11871611Y-16374031D01*
X11871611Y-16374031D02*
X11881134Y-16345460D01*
X11881134Y-16345460D02*
X11890658Y-16297841D01*
X11890658Y-16297841D02*
X11890658Y-16259746D01*
X11890658Y-16259746D02*
X11881134Y-16212127D01*
X11881134Y-16212127D02*
X11871611Y-16183555D01*
X11871611Y-16183555D02*
X11862087Y-16164508D01*
X11862087Y-16164508D02*
X11843039Y-16135936D01*
X11843039Y-16135936D02*
X11833515Y-16126412D01*
M02*
