G04 #@! TF.GenerationSoftware,KiCad,Pcbnew,9.0.0-9.0.0-2~ubuntu24.04.1*
G04 #@! TF.CreationDate,2025-03-29T11:09:29-07:00*
G04 #@! TF.ProjectId,aud_chain2,6175645f-6368-4616-996e-322e6b696361,rev?*
G04 #@! TF.SameCoordinates,Original*
G04 #@! TF.FileFunction,Legend,Top*
G04 #@! TF.FilePolarity,Positive*
%FSLAX46Y46*%
G04 Gerber Fmt 4.6, Leading zero omitted, Abs format (unit mm)*
G04 Created by KiCad (PCBNEW 9.0.0-9.0.0-2~ubuntu24.04.1) date 2025-03-29 11:09:29*
%MOMM*%
%LPD*%
G01*
G04 APERTURE LIST*
G04 Aperture macros list*
%AMRoundRect*
0 Rectangle with rounded corners*
0 $1 Rounding radius*
0 $2 $3 $4 $5 $6 $7 $8 $9 X,Y pos of 4 corners*
0 Add a 4 corners polygon primitive as box body*
4,1,4,$2,$3,$4,$5,$6,$7,$8,$9,$2,$3,0*
0 Add four circle primitives for the rounded corners*
1,1,$1+$1,$2,$3*
1,1,$1+$1,$4,$5*
1,1,$1+$1,$6,$7*
1,1,$1+$1,$8,$9*
0 Add four rect primitives between the rounded corners*
20,1,$1+$1,$2,$3,$4,$5,0*
20,1,$1+$1,$4,$5,$6,$7,0*
20,1,$1+$1,$6,$7,$8,$9,0*
20,1,$1+$1,$8,$9,$2,$3,0*%
%AMFreePoly0*
4,1,9,3.862500,-0.866500,0.737500,-0.866500,0.737500,-0.450000,-0.737500,-0.450000,-0.737500,0.450000,0.737500,0.450000,0.737500,0.866500,3.862500,0.866500,3.862500,-0.866500,3.862500,-0.866500,$1*%
G04 Aperture macros list end*
%ADD10C,0.150000*%
%ADD11C,0.120000*%
%ADD12RoundRect,0.250000X-0.250000X-0.475000X0.250000X-0.475000X0.250000X0.475000X-0.250000X0.475000X0*%
%ADD13RoundRect,0.150000X-0.587500X-0.150000X0.587500X-0.150000X0.587500X0.150000X-0.587500X0.150000X0*%
%ADD14C,2.200000*%
%ADD15RoundRect,0.250000X0.475000X-0.250000X0.475000X0.250000X-0.475000X0.250000X-0.475000X-0.250000X0*%
%ADD16R,1.600000X1.600000*%
%ADD17C,1.600000*%
%ADD18RoundRect,0.150000X-0.825000X-0.150000X0.825000X-0.150000X0.825000X0.150000X-0.825000X0.150000X0*%
%ADD19RoundRect,0.250000X0.250000X0.475000X-0.250000X0.475000X-0.250000X-0.475000X0.250000X-0.475000X0*%
%ADD20C,2.340000*%
%ADD21RoundRect,0.250000X-0.262500X-0.450000X0.262500X-0.450000X0.262500X0.450000X-0.262500X0.450000X0*%
%ADD22R,1.700000X1.700000*%
%ADD23O,1.700000X1.700000*%
%ADD24RoundRect,0.250000X-0.450000X0.262500X-0.450000X-0.262500X0.450000X-0.262500X0.450000X0.262500X0*%
%ADD25RoundRect,0.250000X-0.325000X-0.650000X0.325000X-0.650000X0.325000X0.650000X-0.325000X0.650000X0*%
%ADD26RoundRect,0.250000X0.450000X-0.262500X0.450000X0.262500X-0.450000X0.262500X-0.450000X-0.262500X0*%
%ADD27RoundRect,0.250000X0.262500X0.450000X-0.262500X0.450000X-0.262500X-0.450000X0.262500X-0.450000X0*%
%ADD28RoundRect,0.225000X0.225000X-0.425000X0.225000X0.425000X-0.225000X0.425000X-0.225000X-0.425000X0*%
%ADD29FreePoly0,90.000000*%
G04 APERTURE END LIST*
D10*
X89241333Y-138789580D02*
X89193714Y-138837200D01*
X89193714Y-138837200D02*
X89050857Y-138884819D01*
X89050857Y-138884819D02*
X88955619Y-138884819D01*
X88955619Y-138884819D02*
X88812762Y-138837200D01*
X88812762Y-138837200D02*
X88717524Y-138741961D01*
X88717524Y-138741961D02*
X88669905Y-138646723D01*
X88669905Y-138646723D02*
X88622286Y-138456247D01*
X88622286Y-138456247D02*
X88622286Y-138313390D01*
X88622286Y-138313390D02*
X88669905Y-138122914D01*
X88669905Y-138122914D02*
X88717524Y-138027676D01*
X88717524Y-138027676D02*
X88812762Y-137932438D01*
X88812762Y-137932438D02*
X88955619Y-137884819D01*
X88955619Y-137884819D02*
X89050857Y-137884819D01*
X89050857Y-137884819D02*
X89193714Y-137932438D01*
X89193714Y-137932438D02*
X89241333Y-137980057D01*
X89574667Y-137884819D02*
X90241333Y-137884819D01*
X90241333Y-137884819D02*
X89812762Y-138884819D01*
X70770761Y-133900057D02*
X70675523Y-133852438D01*
X70675523Y-133852438D02*
X70580285Y-133757200D01*
X70580285Y-133757200D02*
X70437428Y-133614342D01*
X70437428Y-133614342D02*
X70342190Y-133566723D01*
X70342190Y-133566723D02*
X70246952Y-133566723D01*
X70294571Y-133804819D02*
X70199333Y-133757200D01*
X70199333Y-133757200D02*
X70104095Y-133661961D01*
X70104095Y-133661961D02*
X70056476Y-133471485D01*
X70056476Y-133471485D02*
X70056476Y-133138152D01*
X70056476Y-133138152D02*
X70104095Y-132947676D01*
X70104095Y-132947676D02*
X70199333Y-132852438D01*
X70199333Y-132852438D02*
X70294571Y-132804819D01*
X70294571Y-132804819D02*
X70485047Y-132804819D01*
X70485047Y-132804819D02*
X70580285Y-132852438D01*
X70580285Y-132852438D02*
X70675523Y-132947676D01*
X70675523Y-132947676D02*
X70723142Y-133138152D01*
X70723142Y-133138152D02*
X70723142Y-133471485D01*
X70723142Y-133471485D02*
X70675523Y-133661961D01*
X70675523Y-133661961D02*
X70580285Y-133757200D01*
X70580285Y-133757200D02*
X70485047Y-133804819D01*
X70485047Y-133804819D02*
X70294571Y-133804819D01*
X71104095Y-132900057D02*
X71151714Y-132852438D01*
X71151714Y-132852438D02*
X71246952Y-132804819D01*
X71246952Y-132804819D02*
X71485047Y-132804819D01*
X71485047Y-132804819D02*
X71580285Y-132852438D01*
X71580285Y-132852438D02*
X71627904Y-132900057D01*
X71627904Y-132900057D02*
X71675523Y-132995295D01*
X71675523Y-132995295D02*
X71675523Y-133090533D01*
X71675523Y-133090533D02*
X71627904Y-133233390D01*
X71627904Y-133233390D02*
X71056476Y-133804819D01*
X71056476Y-133804819D02*
X71675523Y-133804819D01*
X76856333Y-139551580D02*
X76808714Y-139599200D01*
X76808714Y-139599200D02*
X76665857Y-139646819D01*
X76665857Y-139646819D02*
X76570619Y-139646819D01*
X76570619Y-139646819D02*
X76427762Y-139599200D01*
X76427762Y-139599200D02*
X76332524Y-139503961D01*
X76332524Y-139503961D02*
X76284905Y-139408723D01*
X76284905Y-139408723D02*
X76237286Y-139218247D01*
X76237286Y-139218247D02*
X76237286Y-139075390D01*
X76237286Y-139075390D02*
X76284905Y-138884914D01*
X76284905Y-138884914D02*
X76332524Y-138789676D01*
X76332524Y-138789676D02*
X76427762Y-138694438D01*
X76427762Y-138694438D02*
X76570619Y-138646819D01*
X76570619Y-138646819D02*
X76665857Y-138646819D01*
X76665857Y-138646819D02*
X76808714Y-138694438D01*
X76808714Y-138694438D02*
X76856333Y-138742057D01*
X77713476Y-138646819D02*
X77523000Y-138646819D01*
X77523000Y-138646819D02*
X77427762Y-138694438D01*
X77427762Y-138694438D02*
X77380143Y-138742057D01*
X77380143Y-138742057D02*
X77284905Y-138884914D01*
X77284905Y-138884914D02*
X77237286Y-139075390D01*
X77237286Y-139075390D02*
X77237286Y-139456342D01*
X77237286Y-139456342D02*
X77284905Y-139551580D01*
X77284905Y-139551580D02*
X77332524Y-139599200D01*
X77332524Y-139599200D02*
X77427762Y-139646819D01*
X77427762Y-139646819D02*
X77618238Y-139646819D01*
X77618238Y-139646819D02*
X77713476Y-139599200D01*
X77713476Y-139599200D02*
X77761095Y-139551580D01*
X77761095Y-139551580D02*
X77808714Y-139456342D01*
X77808714Y-139456342D02*
X77808714Y-139218247D01*
X77808714Y-139218247D02*
X77761095Y-139123009D01*
X77761095Y-139123009D02*
X77713476Y-139075390D01*
X77713476Y-139075390D02*
X77618238Y-139027771D01*
X77618238Y-139027771D02*
X77427762Y-139027771D01*
X77427762Y-139027771D02*
X77332524Y-139075390D01*
X77332524Y-139075390D02*
X77284905Y-139123009D01*
X77284905Y-139123009D02*
X77237286Y-139218247D01*
X55829580Y-133196666D02*
X55877200Y-133244285D01*
X55877200Y-133244285D02*
X55924819Y-133387142D01*
X55924819Y-133387142D02*
X55924819Y-133482380D01*
X55924819Y-133482380D02*
X55877200Y-133625237D01*
X55877200Y-133625237D02*
X55781961Y-133720475D01*
X55781961Y-133720475D02*
X55686723Y-133768094D01*
X55686723Y-133768094D02*
X55496247Y-133815713D01*
X55496247Y-133815713D02*
X55353390Y-133815713D01*
X55353390Y-133815713D02*
X55162914Y-133768094D01*
X55162914Y-133768094D02*
X55067676Y-133720475D01*
X55067676Y-133720475D02*
X54972438Y-133625237D01*
X54972438Y-133625237D02*
X54924819Y-133482380D01*
X54924819Y-133482380D02*
X54924819Y-133387142D01*
X54924819Y-133387142D02*
X54972438Y-133244285D01*
X54972438Y-133244285D02*
X55020057Y-133196666D01*
X55924819Y-132244285D02*
X55924819Y-132815713D01*
X55924819Y-132529999D02*
X54924819Y-132529999D01*
X54924819Y-132529999D02*
X55067676Y-132625237D01*
X55067676Y-132625237D02*
X55162914Y-132720475D01*
X55162914Y-132720475D02*
X55210533Y-132815713D01*
X71493142Y-141837580D02*
X71445523Y-141885200D01*
X71445523Y-141885200D02*
X71302666Y-141932819D01*
X71302666Y-141932819D02*
X71207428Y-141932819D01*
X71207428Y-141932819D02*
X71064571Y-141885200D01*
X71064571Y-141885200D02*
X70969333Y-141789961D01*
X70969333Y-141789961D02*
X70921714Y-141694723D01*
X70921714Y-141694723D02*
X70874095Y-141504247D01*
X70874095Y-141504247D02*
X70874095Y-141361390D01*
X70874095Y-141361390D02*
X70921714Y-141170914D01*
X70921714Y-141170914D02*
X70969333Y-141075676D01*
X70969333Y-141075676D02*
X71064571Y-140980438D01*
X71064571Y-140980438D02*
X71207428Y-140932819D01*
X71207428Y-140932819D02*
X71302666Y-140932819D01*
X71302666Y-140932819D02*
X71445523Y-140980438D01*
X71445523Y-140980438D02*
X71493142Y-141028057D01*
X72445523Y-141932819D02*
X71874095Y-141932819D01*
X72159809Y-141932819D02*
X72159809Y-140932819D01*
X72159809Y-140932819D02*
X72064571Y-141075676D01*
X72064571Y-141075676D02*
X71969333Y-141170914D01*
X71969333Y-141170914D02*
X71874095Y-141218533D01*
X73064571Y-140932819D02*
X73159809Y-140932819D01*
X73159809Y-140932819D02*
X73255047Y-140980438D01*
X73255047Y-140980438D02*
X73302666Y-141028057D01*
X73302666Y-141028057D02*
X73350285Y-141123295D01*
X73350285Y-141123295D02*
X73397904Y-141313771D01*
X73397904Y-141313771D02*
X73397904Y-141551866D01*
X73397904Y-141551866D02*
X73350285Y-141742342D01*
X73350285Y-141742342D02*
X73302666Y-141837580D01*
X73302666Y-141837580D02*
X73255047Y-141885200D01*
X73255047Y-141885200D02*
X73159809Y-141932819D01*
X73159809Y-141932819D02*
X73064571Y-141932819D01*
X73064571Y-141932819D02*
X72969333Y-141885200D01*
X72969333Y-141885200D02*
X72921714Y-141837580D01*
X72921714Y-141837580D02*
X72874095Y-141742342D01*
X72874095Y-141742342D02*
X72826476Y-141551866D01*
X72826476Y-141551866D02*
X72826476Y-141313771D01*
X72826476Y-141313771D02*
X72874095Y-141123295D01*
X72874095Y-141123295D02*
X72921714Y-141028057D01*
X72921714Y-141028057D02*
X72969333Y-140980438D01*
X72969333Y-140980438D02*
X73064571Y-140932819D01*
X76773095Y-147819819D02*
X76773095Y-148629342D01*
X76773095Y-148629342D02*
X76820714Y-148724580D01*
X76820714Y-148724580D02*
X76868333Y-148772200D01*
X76868333Y-148772200D02*
X76963571Y-148819819D01*
X76963571Y-148819819D02*
X77154047Y-148819819D01*
X77154047Y-148819819D02*
X77249285Y-148772200D01*
X77249285Y-148772200D02*
X77296904Y-148724580D01*
X77296904Y-148724580D02*
X77344523Y-148629342D01*
X77344523Y-148629342D02*
X77344523Y-147819819D01*
X77773095Y-147915057D02*
X77820714Y-147867438D01*
X77820714Y-147867438D02*
X77915952Y-147819819D01*
X77915952Y-147819819D02*
X78154047Y-147819819D01*
X78154047Y-147819819D02*
X78249285Y-147867438D01*
X78249285Y-147867438D02*
X78296904Y-147915057D01*
X78296904Y-147915057D02*
X78344523Y-148010295D01*
X78344523Y-148010295D02*
X78344523Y-148105533D01*
X78344523Y-148105533D02*
X78296904Y-148248390D01*
X78296904Y-148248390D02*
X77725476Y-148819819D01*
X77725476Y-148819819D02*
X78344523Y-148819819D01*
X72858333Y-129264580D02*
X72810714Y-129312200D01*
X72810714Y-129312200D02*
X72667857Y-129359819D01*
X72667857Y-129359819D02*
X72572619Y-129359819D01*
X72572619Y-129359819D02*
X72429762Y-129312200D01*
X72429762Y-129312200D02*
X72334524Y-129216961D01*
X72334524Y-129216961D02*
X72286905Y-129121723D01*
X72286905Y-129121723D02*
X72239286Y-128931247D01*
X72239286Y-128931247D02*
X72239286Y-128788390D01*
X72239286Y-128788390D02*
X72286905Y-128597914D01*
X72286905Y-128597914D02*
X72334524Y-128502676D01*
X72334524Y-128502676D02*
X72429762Y-128407438D01*
X72429762Y-128407438D02*
X72572619Y-128359819D01*
X72572619Y-128359819D02*
X72667857Y-128359819D01*
X72667857Y-128359819D02*
X72810714Y-128407438D01*
X72810714Y-128407438D02*
X72858333Y-128455057D01*
X73715476Y-128693152D02*
X73715476Y-129359819D01*
X73477381Y-128312200D02*
X73239286Y-129026485D01*
X73239286Y-129026485D02*
X73858333Y-129026485D01*
X80594580Y-142406666D02*
X80642200Y-142454285D01*
X80642200Y-142454285D02*
X80689819Y-142597142D01*
X80689819Y-142597142D02*
X80689819Y-142692380D01*
X80689819Y-142692380D02*
X80642200Y-142835237D01*
X80642200Y-142835237D02*
X80546961Y-142930475D01*
X80546961Y-142930475D02*
X80451723Y-142978094D01*
X80451723Y-142978094D02*
X80261247Y-143025713D01*
X80261247Y-143025713D02*
X80118390Y-143025713D01*
X80118390Y-143025713D02*
X79927914Y-142978094D01*
X79927914Y-142978094D02*
X79832676Y-142930475D01*
X79832676Y-142930475D02*
X79737438Y-142835237D01*
X79737438Y-142835237D02*
X79689819Y-142692380D01*
X79689819Y-142692380D02*
X79689819Y-142597142D01*
X79689819Y-142597142D02*
X79737438Y-142454285D01*
X79737438Y-142454285D02*
X79785057Y-142406666D01*
X80118390Y-141835237D02*
X80070771Y-141930475D01*
X80070771Y-141930475D02*
X80023152Y-141978094D01*
X80023152Y-141978094D02*
X79927914Y-142025713D01*
X79927914Y-142025713D02*
X79880295Y-142025713D01*
X79880295Y-142025713D02*
X79785057Y-141978094D01*
X79785057Y-141978094D02*
X79737438Y-141930475D01*
X79737438Y-141930475D02*
X79689819Y-141835237D01*
X79689819Y-141835237D02*
X79689819Y-141644761D01*
X79689819Y-141644761D02*
X79737438Y-141549523D01*
X79737438Y-141549523D02*
X79785057Y-141501904D01*
X79785057Y-141501904D02*
X79880295Y-141454285D01*
X79880295Y-141454285D02*
X79927914Y-141454285D01*
X79927914Y-141454285D02*
X80023152Y-141501904D01*
X80023152Y-141501904D02*
X80070771Y-141549523D01*
X80070771Y-141549523D02*
X80118390Y-141644761D01*
X80118390Y-141644761D02*
X80118390Y-141835237D01*
X80118390Y-141835237D02*
X80166009Y-141930475D01*
X80166009Y-141930475D02*
X80213628Y-141978094D01*
X80213628Y-141978094D02*
X80308866Y-142025713D01*
X80308866Y-142025713D02*
X80499342Y-142025713D01*
X80499342Y-142025713D02*
X80594580Y-141978094D01*
X80594580Y-141978094D02*
X80642200Y-141930475D01*
X80642200Y-141930475D02*
X80689819Y-141835237D01*
X80689819Y-141835237D02*
X80689819Y-141644761D01*
X80689819Y-141644761D02*
X80642200Y-141549523D01*
X80642200Y-141549523D02*
X80594580Y-141501904D01*
X80594580Y-141501904D02*
X80499342Y-141454285D01*
X80499342Y-141454285D02*
X80308866Y-141454285D01*
X80308866Y-141454285D02*
X80213628Y-141501904D01*
X80213628Y-141501904D02*
X80166009Y-141549523D01*
X80166009Y-141549523D02*
X80118390Y-141644761D01*
X92749761Y-132729819D02*
X92416428Y-132253628D01*
X92178333Y-132729819D02*
X92178333Y-131729819D01*
X92178333Y-131729819D02*
X92559285Y-131729819D01*
X92559285Y-131729819D02*
X92654523Y-131777438D01*
X92654523Y-131777438D02*
X92702142Y-131825057D01*
X92702142Y-131825057D02*
X92749761Y-131920295D01*
X92749761Y-131920295D02*
X92749761Y-132063152D01*
X92749761Y-132063152D02*
X92702142Y-132158390D01*
X92702142Y-132158390D02*
X92654523Y-132206009D01*
X92654523Y-132206009D02*
X92559285Y-132253628D01*
X92559285Y-132253628D02*
X92178333Y-132253628D01*
X93035476Y-131729819D02*
X93368809Y-132729819D01*
X93368809Y-132729819D02*
X93702142Y-131729819D01*
X94559285Y-132729819D02*
X93987857Y-132729819D01*
X94273571Y-132729819D02*
X94273571Y-131729819D01*
X94273571Y-131729819D02*
X94178333Y-131872676D01*
X94178333Y-131872676D02*
X94083095Y-131967914D01*
X94083095Y-131967914D02*
X93987857Y-132015533D01*
X67397333Y-137265580D02*
X67349714Y-137313200D01*
X67349714Y-137313200D02*
X67206857Y-137360819D01*
X67206857Y-137360819D02*
X67111619Y-137360819D01*
X67111619Y-137360819D02*
X66968762Y-137313200D01*
X66968762Y-137313200D02*
X66873524Y-137217961D01*
X66873524Y-137217961D02*
X66825905Y-137122723D01*
X66825905Y-137122723D02*
X66778286Y-136932247D01*
X66778286Y-136932247D02*
X66778286Y-136789390D01*
X66778286Y-136789390D02*
X66825905Y-136598914D01*
X66825905Y-136598914D02*
X66873524Y-136503676D01*
X66873524Y-136503676D02*
X66968762Y-136408438D01*
X66968762Y-136408438D02*
X67111619Y-136360819D01*
X67111619Y-136360819D02*
X67206857Y-136360819D01*
X67206857Y-136360819D02*
X67349714Y-136408438D01*
X67349714Y-136408438D02*
X67397333Y-136456057D01*
X67730667Y-136360819D02*
X68349714Y-136360819D01*
X68349714Y-136360819D02*
X68016381Y-136741771D01*
X68016381Y-136741771D02*
X68159238Y-136741771D01*
X68159238Y-136741771D02*
X68254476Y-136789390D01*
X68254476Y-136789390D02*
X68302095Y-136837009D01*
X68302095Y-136837009D02*
X68349714Y-136932247D01*
X68349714Y-136932247D02*
X68349714Y-137170342D01*
X68349714Y-137170342D02*
X68302095Y-137265580D01*
X68302095Y-137265580D02*
X68254476Y-137313200D01*
X68254476Y-137313200D02*
X68159238Y-137360819D01*
X68159238Y-137360819D02*
X67873524Y-137360819D01*
X67873524Y-137360819D02*
X67778286Y-137313200D01*
X67778286Y-137313200D02*
X67730667Y-137265580D01*
X61333142Y-150854580D02*
X61285523Y-150902200D01*
X61285523Y-150902200D02*
X61142666Y-150949819D01*
X61142666Y-150949819D02*
X61047428Y-150949819D01*
X61047428Y-150949819D02*
X60904571Y-150902200D01*
X60904571Y-150902200D02*
X60809333Y-150806961D01*
X60809333Y-150806961D02*
X60761714Y-150711723D01*
X60761714Y-150711723D02*
X60714095Y-150521247D01*
X60714095Y-150521247D02*
X60714095Y-150378390D01*
X60714095Y-150378390D02*
X60761714Y-150187914D01*
X60761714Y-150187914D02*
X60809333Y-150092676D01*
X60809333Y-150092676D02*
X60904571Y-149997438D01*
X60904571Y-149997438D02*
X61047428Y-149949819D01*
X61047428Y-149949819D02*
X61142666Y-149949819D01*
X61142666Y-149949819D02*
X61285523Y-149997438D01*
X61285523Y-149997438D02*
X61333142Y-150045057D01*
X62285523Y-150949819D02*
X61714095Y-150949819D01*
X61999809Y-150949819D02*
X61999809Y-149949819D01*
X61999809Y-149949819D02*
X61904571Y-150092676D01*
X61904571Y-150092676D02*
X61809333Y-150187914D01*
X61809333Y-150187914D02*
X61714095Y-150235533D01*
X62666476Y-150045057D02*
X62714095Y-149997438D01*
X62714095Y-149997438D02*
X62809333Y-149949819D01*
X62809333Y-149949819D02*
X63047428Y-149949819D01*
X63047428Y-149949819D02*
X63142666Y-149997438D01*
X63142666Y-149997438D02*
X63190285Y-150045057D01*
X63190285Y-150045057D02*
X63237904Y-150140295D01*
X63237904Y-150140295D02*
X63237904Y-150235533D01*
X63237904Y-150235533D02*
X63190285Y-150378390D01*
X63190285Y-150378390D02*
X62618857Y-150949819D01*
X62618857Y-150949819D02*
X63237904Y-150949819D01*
X83978761Y-134154057D02*
X83883523Y-134106438D01*
X83883523Y-134106438D02*
X83788285Y-134011200D01*
X83788285Y-134011200D02*
X83645428Y-133868342D01*
X83645428Y-133868342D02*
X83550190Y-133820723D01*
X83550190Y-133820723D02*
X83454952Y-133820723D01*
X83502571Y-134058819D02*
X83407333Y-134011200D01*
X83407333Y-134011200D02*
X83312095Y-133915961D01*
X83312095Y-133915961D02*
X83264476Y-133725485D01*
X83264476Y-133725485D02*
X83264476Y-133392152D01*
X83264476Y-133392152D02*
X83312095Y-133201676D01*
X83312095Y-133201676D02*
X83407333Y-133106438D01*
X83407333Y-133106438D02*
X83502571Y-133058819D01*
X83502571Y-133058819D02*
X83693047Y-133058819D01*
X83693047Y-133058819D02*
X83788285Y-133106438D01*
X83788285Y-133106438D02*
X83883523Y-133201676D01*
X83883523Y-133201676D02*
X83931142Y-133392152D01*
X83931142Y-133392152D02*
X83931142Y-133725485D01*
X83931142Y-133725485D02*
X83883523Y-133915961D01*
X83883523Y-133915961D02*
X83788285Y-134011200D01*
X83788285Y-134011200D02*
X83693047Y-134058819D01*
X83693047Y-134058819D02*
X83502571Y-134058819D01*
X84264476Y-133058819D02*
X84883523Y-133058819D01*
X84883523Y-133058819D02*
X84550190Y-133439771D01*
X84550190Y-133439771D02*
X84693047Y-133439771D01*
X84693047Y-133439771D02*
X84788285Y-133487390D01*
X84788285Y-133487390D02*
X84835904Y-133535009D01*
X84835904Y-133535009D02*
X84883523Y-133630247D01*
X84883523Y-133630247D02*
X84883523Y-133868342D01*
X84883523Y-133868342D02*
X84835904Y-133963580D01*
X84835904Y-133963580D02*
X84788285Y-134011200D01*
X84788285Y-134011200D02*
X84693047Y-134058819D01*
X84693047Y-134058819D02*
X84407333Y-134058819D01*
X84407333Y-134058819D02*
X84312095Y-134011200D01*
X84312095Y-134011200D02*
X84264476Y-133963580D01*
X61047333Y-133963580D02*
X60999714Y-134011200D01*
X60999714Y-134011200D02*
X60856857Y-134058819D01*
X60856857Y-134058819D02*
X60761619Y-134058819D01*
X60761619Y-134058819D02*
X60618762Y-134011200D01*
X60618762Y-134011200D02*
X60523524Y-133915961D01*
X60523524Y-133915961D02*
X60475905Y-133820723D01*
X60475905Y-133820723D02*
X60428286Y-133630247D01*
X60428286Y-133630247D02*
X60428286Y-133487390D01*
X60428286Y-133487390D02*
X60475905Y-133296914D01*
X60475905Y-133296914D02*
X60523524Y-133201676D01*
X60523524Y-133201676D02*
X60618762Y-133106438D01*
X60618762Y-133106438D02*
X60761619Y-133058819D01*
X60761619Y-133058819D02*
X60856857Y-133058819D01*
X60856857Y-133058819D02*
X60999714Y-133106438D01*
X60999714Y-133106438D02*
X61047333Y-133154057D01*
X61428286Y-133154057D02*
X61475905Y-133106438D01*
X61475905Y-133106438D02*
X61571143Y-133058819D01*
X61571143Y-133058819D02*
X61809238Y-133058819D01*
X61809238Y-133058819D02*
X61904476Y-133106438D01*
X61904476Y-133106438D02*
X61952095Y-133154057D01*
X61952095Y-133154057D02*
X61999714Y-133249295D01*
X61999714Y-133249295D02*
X61999714Y-133344533D01*
X61999714Y-133344533D02*
X61952095Y-133487390D01*
X61952095Y-133487390D02*
X61380667Y-134058819D01*
X61380667Y-134058819D02*
X61999714Y-134058819D01*
X73135833Y-139646819D02*
X72802500Y-139170628D01*
X72564405Y-139646819D02*
X72564405Y-138646819D01*
X72564405Y-138646819D02*
X72945357Y-138646819D01*
X72945357Y-138646819D02*
X73040595Y-138694438D01*
X73040595Y-138694438D02*
X73088214Y-138742057D01*
X73088214Y-138742057D02*
X73135833Y-138837295D01*
X73135833Y-138837295D02*
X73135833Y-138980152D01*
X73135833Y-138980152D02*
X73088214Y-139075390D01*
X73088214Y-139075390D02*
X73040595Y-139123009D01*
X73040595Y-139123009D02*
X72945357Y-139170628D01*
X72945357Y-139170628D02*
X72564405Y-139170628D01*
X73469167Y-138646819D02*
X74135833Y-138646819D01*
X74135833Y-138646819D02*
X73707262Y-139646819D01*
X84844047Y-153934438D02*
X84748809Y-153886819D01*
X84748809Y-153886819D02*
X84605952Y-153886819D01*
X84605952Y-153886819D02*
X84463095Y-153934438D01*
X84463095Y-153934438D02*
X84367857Y-154029676D01*
X84367857Y-154029676D02*
X84320238Y-154124914D01*
X84320238Y-154124914D02*
X84272619Y-154315390D01*
X84272619Y-154315390D02*
X84272619Y-154458247D01*
X84272619Y-154458247D02*
X84320238Y-154648723D01*
X84320238Y-154648723D02*
X84367857Y-154743961D01*
X84367857Y-154743961D02*
X84463095Y-154839200D01*
X84463095Y-154839200D02*
X84605952Y-154886819D01*
X84605952Y-154886819D02*
X84701190Y-154886819D01*
X84701190Y-154886819D02*
X84844047Y-154839200D01*
X84844047Y-154839200D02*
X84891666Y-154791580D01*
X84891666Y-154791580D02*
X84891666Y-154458247D01*
X84891666Y-154458247D02*
X84701190Y-154458247D01*
X85748809Y-154886819D02*
X85748809Y-154363009D01*
X85748809Y-154363009D02*
X85701190Y-154267771D01*
X85701190Y-154267771D02*
X85605952Y-154220152D01*
X85605952Y-154220152D02*
X85415476Y-154220152D01*
X85415476Y-154220152D02*
X85320238Y-154267771D01*
X85748809Y-154839200D02*
X85653571Y-154886819D01*
X85653571Y-154886819D02*
X85415476Y-154886819D01*
X85415476Y-154886819D02*
X85320238Y-154839200D01*
X85320238Y-154839200D02*
X85272619Y-154743961D01*
X85272619Y-154743961D02*
X85272619Y-154648723D01*
X85272619Y-154648723D02*
X85320238Y-154553485D01*
X85320238Y-154553485D02*
X85415476Y-154505866D01*
X85415476Y-154505866D02*
X85653571Y-154505866D01*
X85653571Y-154505866D02*
X85748809Y-154458247D01*
X86225000Y-154886819D02*
X86225000Y-154220152D01*
X86225000Y-153886819D02*
X86177381Y-153934438D01*
X86177381Y-153934438D02*
X86225000Y-153982057D01*
X86225000Y-153982057D02*
X86272619Y-153934438D01*
X86272619Y-153934438D02*
X86225000Y-153886819D01*
X86225000Y-153886819D02*
X86225000Y-153982057D01*
X86701190Y-154220152D02*
X86701190Y-154886819D01*
X86701190Y-154315390D02*
X86748809Y-154267771D01*
X86748809Y-154267771D02*
X86844047Y-154220152D01*
X86844047Y-154220152D02*
X86986904Y-154220152D01*
X86986904Y-154220152D02*
X87082142Y-154267771D01*
X87082142Y-154267771D02*
X87129761Y-154363009D01*
X87129761Y-154363009D02*
X87129761Y-154886819D01*
X82877819Y-137445357D02*
X82401628Y-137778690D01*
X82877819Y-138016785D02*
X81877819Y-138016785D01*
X81877819Y-138016785D02*
X81877819Y-137635833D01*
X81877819Y-137635833D02*
X81925438Y-137540595D01*
X81925438Y-137540595D02*
X81973057Y-137492976D01*
X81973057Y-137492976D02*
X82068295Y-137445357D01*
X82068295Y-137445357D02*
X82211152Y-137445357D01*
X82211152Y-137445357D02*
X82306390Y-137492976D01*
X82306390Y-137492976D02*
X82354009Y-137540595D01*
X82354009Y-137540595D02*
X82401628Y-137635833D01*
X82401628Y-137635833D02*
X82401628Y-138016785D01*
X82877819Y-136492976D02*
X82877819Y-137064404D01*
X82877819Y-136778690D02*
X81877819Y-136778690D01*
X81877819Y-136778690D02*
X82020676Y-136873928D01*
X82020676Y-136873928D02*
X82115914Y-136969166D01*
X82115914Y-136969166D02*
X82163533Y-137064404D01*
X81877819Y-135873928D02*
X81877819Y-135778690D01*
X81877819Y-135778690D02*
X81925438Y-135683452D01*
X81925438Y-135683452D02*
X81973057Y-135635833D01*
X81973057Y-135635833D02*
X82068295Y-135588214D01*
X82068295Y-135588214D02*
X82258771Y-135540595D01*
X82258771Y-135540595D02*
X82496866Y-135540595D01*
X82496866Y-135540595D02*
X82687342Y-135588214D01*
X82687342Y-135588214D02*
X82782580Y-135635833D01*
X82782580Y-135635833D02*
X82830200Y-135683452D01*
X82830200Y-135683452D02*
X82877819Y-135778690D01*
X82877819Y-135778690D02*
X82877819Y-135873928D01*
X82877819Y-135873928D02*
X82830200Y-135969166D01*
X82830200Y-135969166D02*
X82782580Y-136016785D01*
X82782580Y-136016785D02*
X82687342Y-136064404D01*
X82687342Y-136064404D02*
X82496866Y-136112023D01*
X82496866Y-136112023D02*
X82258771Y-136112023D01*
X82258771Y-136112023D02*
X82068295Y-136064404D01*
X82068295Y-136064404D02*
X81973057Y-136016785D01*
X81973057Y-136016785D02*
X81925438Y-135969166D01*
X81925438Y-135969166D02*
X81877819Y-135873928D01*
X86559819Y-141358857D02*
X86083628Y-141692190D01*
X86559819Y-141930285D02*
X85559819Y-141930285D01*
X85559819Y-141930285D02*
X85559819Y-141549333D01*
X85559819Y-141549333D02*
X85607438Y-141454095D01*
X85607438Y-141454095D02*
X85655057Y-141406476D01*
X85655057Y-141406476D02*
X85750295Y-141358857D01*
X85750295Y-141358857D02*
X85893152Y-141358857D01*
X85893152Y-141358857D02*
X85988390Y-141406476D01*
X85988390Y-141406476D02*
X86036009Y-141454095D01*
X86036009Y-141454095D02*
X86083628Y-141549333D01*
X86083628Y-141549333D02*
X86083628Y-141930285D01*
X86559819Y-140406476D02*
X86559819Y-140977904D01*
X86559819Y-140692190D02*
X85559819Y-140692190D01*
X85559819Y-140692190D02*
X85702676Y-140787428D01*
X85702676Y-140787428D02*
X85797914Y-140882666D01*
X85797914Y-140882666D02*
X85845533Y-140977904D01*
X86559819Y-139454095D02*
X86559819Y-140025523D01*
X86559819Y-139739809D02*
X85559819Y-139739809D01*
X85559819Y-139739809D02*
X85702676Y-139835047D01*
X85702676Y-139835047D02*
X85797914Y-139930285D01*
X85797914Y-139930285D02*
X85845533Y-140025523D01*
X56430890Y-150981580D02*
X56383271Y-151029200D01*
X56383271Y-151029200D02*
X56240414Y-151076819D01*
X56240414Y-151076819D02*
X56145176Y-151076819D01*
X56145176Y-151076819D02*
X56002319Y-151029200D01*
X56002319Y-151029200D02*
X55907081Y-150933961D01*
X55907081Y-150933961D02*
X55859462Y-150838723D01*
X55859462Y-150838723D02*
X55811843Y-150648247D01*
X55811843Y-150648247D02*
X55811843Y-150505390D01*
X55811843Y-150505390D02*
X55859462Y-150314914D01*
X55859462Y-150314914D02*
X55907081Y-150219676D01*
X55907081Y-150219676D02*
X56002319Y-150124438D01*
X56002319Y-150124438D02*
X56145176Y-150076819D01*
X56145176Y-150076819D02*
X56240414Y-150076819D01*
X56240414Y-150076819D02*
X56383271Y-150124438D01*
X56383271Y-150124438D02*
X56430890Y-150172057D01*
X57383271Y-151076819D02*
X56811843Y-151076819D01*
X57097557Y-151076819D02*
X57097557Y-150076819D01*
X57097557Y-150076819D02*
X57002319Y-150219676D01*
X57002319Y-150219676D02*
X56907081Y-150314914D01*
X56907081Y-150314914D02*
X56811843Y-150362533D01*
X57716605Y-150076819D02*
X58335652Y-150076819D01*
X58335652Y-150076819D02*
X58002319Y-150457771D01*
X58002319Y-150457771D02*
X58145176Y-150457771D01*
X58145176Y-150457771D02*
X58240414Y-150505390D01*
X58240414Y-150505390D02*
X58288033Y-150553009D01*
X58288033Y-150553009D02*
X58335652Y-150648247D01*
X58335652Y-150648247D02*
X58335652Y-150886342D01*
X58335652Y-150886342D02*
X58288033Y-150981580D01*
X58288033Y-150981580D02*
X58240414Y-151029200D01*
X58240414Y-151029200D02*
X58145176Y-151076819D01*
X58145176Y-151076819D02*
X57859462Y-151076819D01*
X57859462Y-151076819D02*
X57764224Y-151029200D01*
X57764224Y-151029200D02*
X57716605Y-150981580D01*
X57895833Y-128344819D02*
X57562500Y-127868628D01*
X57324405Y-128344819D02*
X57324405Y-127344819D01*
X57324405Y-127344819D02*
X57705357Y-127344819D01*
X57705357Y-127344819D02*
X57800595Y-127392438D01*
X57800595Y-127392438D02*
X57848214Y-127440057D01*
X57848214Y-127440057D02*
X57895833Y-127535295D01*
X57895833Y-127535295D02*
X57895833Y-127678152D01*
X57895833Y-127678152D02*
X57848214Y-127773390D01*
X57848214Y-127773390D02*
X57800595Y-127821009D01*
X57800595Y-127821009D02*
X57705357Y-127868628D01*
X57705357Y-127868628D02*
X57324405Y-127868628D01*
X58229167Y-127344819D02*
X58848214Y-127344819D01*
X58848214Y-127344819D02*
X58514881Y-127725771D01*
X58514881Y-127725771D02*
X58657738Y-127725771D01*
X58657738Y-127725771D02*
X58752976Y-127773390D01*
X58752976Y-127773390D02*
X58800595Y-127821009D01*
X58800595Y-127821009D02*
X58848214Y-127916247D01*
X58848214Y-127916247D02*
X58848214Y-128154342D01*
X58848214Y-128154342D02*
X58800595Y-128249580D01*
X58800595Y-128249580D02*
X58752976Y-128297200D01*
X58752976Y-128297200D02*
X58657738Y-128344819D01*
X58657738Y-128344819D02*
X58372024Y-128344819D01*
X58372024Y-128344819D02*
X58276786Y-128297200D01*
X58276786Y-128297200D02*
X58229167Y-128249580D01*
X63658761Y-135805057D02*
X63563523Y-135757438D01*
X63563523Y-135757438D02*
X63468285Y-135662200D01*
X63468285Y-135662200D02*
X63325428Y-135519342D01*
X63325428Y-135519342D02*
X63230190Y-135471723D01*
X63230190Y-135471723D02*
X63134952Y-135471723D01*
X63182571Y-135709819D02*
X63087333Y-135662200D01*
X63087333Y-135662200D02*
X62992095Y-135566961D01*
X62992095Y-135566961D02*
X62944476Y-135376485D01*
X62944476Y-135376485D02*
X62944476Y-135043152D01*
X62944476Y-135043152D02*
X62992095Y-134852676D01*
X62992095Y-134852676D02*
X63087333Y-134757438D01*
X63087333Y-134757438D02*
X63182571Y-134709819D01*
X63182571Y-134709819D02*
X63373047Y-134709819D01*
X63373047Y-134709819D02*
X63468285Y-134757438D01*
X63468285Y-134757438D02*
X63563523Y-134852676D01*
X63563523Y-134852676D02*
X63611142Y-135043152D01*
X63611142Y-135043152D02*
X63611142Y-135376485D01*
X63611142Y-135376485D02*
X63563523Y-135566961D01*
X63563523Y-135566961D02*
X63468285Y-135662200D01*
X63468285Y-135662200D02*
X63373047Y-135709819D01*
X63373047Y-135709819D02*
X63182571Y-135709819D01*
X64563523Y-135709819D02*
X63992095Y-135709819D01*
X64277809Y-135709819D02*
X64277809Y-134709819D01*
X64277809Y-134709819D02*
X64182571Y-134852676D01*
X64182571Y-134852676D02*
X64087333Y-134947914D01*
X64087333Y-134947914D02*
X63992095Y-134995533D01*
X81399142Y-128629580D02*
X81351523Y-128677200D01*
X81351523Y-128677200D02*
X81208666Y-128724819D01*
X81208666Y-128724819D02*
X81113428Y-128724819D01*
X81113428Y-128724819D02*
X80970571Y-128677200D01*
X80970571Y-128677200D02*
X80875333Y-128581961D01*
X80875333Y-128581961D02*
X80827714Y-128486723D01*
X80827714Y-128486723D02*
X80780095Y-128296247D01*
X80780095Y-128296247D02*
X80780095Y-128153390D01*
X80780095Y-128153390D02*
X80827714Y-127962914D01*
X80827714Y-127962914D02*
X80875333Y-127867676D01*
X80875333Y-127867676D02*
X80970571Y-127772438D01*
X80970571Y-127772438D02*
X81113428Y-127724819D01*
X81113428Y-127724819D02*
X81208666Y-127724819D01*
X81208666Y-127724819D02*
X81351523Y-127772438D01*
X81351523Y-127772438D02*
X81399142Y-127820057D01*
X82351523Y-128724819D02*
X81780095Y-128724819D01*
X82065809Y-128724819D02*
X82065809Y-127724819D01*
X82065809Y-127724819D02*
X81970571Y-127867676D01*
X81970571Y-127867676D02*
X81875333Y-127962914D01*
X81875333Y-127962914D02*
X81780095Y-128010533D01*
X83208666Y-128058152D02*
X83208666Y-128724819D01*
X82970571Y-127677200D02*
X82732476Y-128391485D01*
X82732476Y-128391485D02*
X83351523Y-128391485D01*
X69162819Y-138596666D02*
X68686628Y-138929999D01*
X69162819Y-139168094D02*
X68162819Y-139168094D01*
X68162819Y-139168094D02*
X68162819Y-138787142D01*
X68162819Y-138787142D02*
X68210438Y-138691904D01*
X68210438Y-138691904D02*
X68258057Y-138644285D01*
X68258057Y-138644285D02*
X68353295Y-138596666D01*
X68353295Y-138596666D02*
X68496152Y-138596666D01*
X68496152Y-138596666D02*
X68591390Y-138644285D01*
X68591390Y-138644285D02*
X68639009Y-138691904D01*
X68639009Y-138691904D02*
X68686628Y-138787142D01*
X68686628Y-138787142D02*
X68686628Y-139168094D01*
X68162819Y-137739523D02*
X68162819Y-137929999D01*
X68162819Y-137929999D02*
X68210438Y-138025237D01*
X68210438Y-138025237D02*
X68258057Y-138072856D01*
X68258057Y-138072856D02*
X68400914Y-138168094D01*
X68400914Y-138168094D02*
X68591390Y-138215713D01*
X68591390Y-138215713D02*
X68972342Y-138215713D01*
X68972342Y-138215713D02*
X69067580Y-138168094D01*
X69067580Y-138168094D02*
X69115200Y-138120475D01*
X69115200Y-138120475D02*
X69162819Y-138025237D01*
X69162819Y-138025237D02*
X69162819Y-137834761D01*
X69162819Y-137834761D02*
X69115200Y-137739523D01*
X69115200Y-137739523D02*
X69067580Y-137691904D01*
X69067580Y-137691904D02*
X68972342Y-137644285D01*
X68972342Y-137644285D02*
X68734247Y-137644285D01*
X68734247Y-137644285D02*
X68639009Y-137691904D01*
X68639009Y-137691904D02*
X68591390Y-137739523D01*
X68591390Y-137739523D02*
X68543771Y-137834761D01*
X68543771Y-137834761D02*
X68543771Y-138025237D01*
X68543771Y-138025237D02*
X68591390Y-138120475D01*
X68591390Y-138120475D02*
X68639009Y-138168094D01*
X68639009Y-138168094D02*
X68734247Y-138215713D01*
X89495333Y-135233580D02*
X89447714Y-135281200D01*
X89447714Y-135281200D02*
X89304857Y-135328819D01*
X89304857Y-135328819D02*
X89209619Y-135328819D01*
X89209619Y-135328819D02*
X89066762Y-135281200D01*
X89066762Y-135281200D02*
X88971524Y-135185961D01*
X88971524Y-135185961D02*
X88923905Y-135090723D01*
X88923905Y-135090723D02*
X88876286Y-134900247D01*
X88876286Y-134900247D02*
X88876286Y-134757390D01*
X88876286Y-134757390D02*
X88923905Y-134566914D01*
X88923905Y-134566914D02*
X88971524Y-134471676D01*
X88971524Y-134471676D02*
X89066762Y-134376438D01*
X89066762Y-134376438D02*
X89209619Y-134328819D01*
X89209619Y-134328819D02*
X89304857Y-134328819D01*
X89304857Y-134328819D02*
X89447714Y-134376438D01*
X89447714Y-134376438D02*
X89495333Y-134424057D01*
X89971524Y-135328819D02*
X90162000Y-135328819D01*
X90162000Y-135328819D02*
X90257238Y-135281200D01*
X90257238Y-135281200D02*
X90304857Y-135233580D01*
X90304857Y-135233580D02*
X90400095Y-135090723D01*
X90400095Y-135090723D02*
X90447714Y-134900247D01*
X90447714Y-134900247D02*
X90447714Y-134519295D01*
X90447714Y-134519295D02*
X90400095Y-134424057D01*
X90400095Y-134424057D02*
X90352476Y-134376438D01*
X90352476Y-134376438D02*
X90257238Y-134328819D01*
X90257238Y-134328819D02*
X90066762Y-134328819D01*
X90066762Y-134328819D02*
X89971524Y-134376438D01*
X89971524Y-134376438D02*
X89923905Y-134424057D01*
X89923905Y-134424057D02*
X89876286Y-134519295D01*
X89876286Y-134519295D02*
X89876286Y-134757390D01*
X89876286Y-134757390D02*
X89923905Y-134852628D01*
X89923905Y-134852628D02*
X89971524Y-134900247D01*
X89971524Y-134900247D02*
X90066762Y-134947866D01*
X90066762Y-134947866D02*
X90257238Y-134947866D01*
X90257238Y-134947866D02*
X90352476Y-134900247D01*
X90352476Y-134900247D02*
X90400095Y-134852628D01*
X90400095Y-134852628D02*
X90447714Y-134757390D01*
X56634142Y-140154819D02*
X56300809Y-139678628D01*
X56062714Y-140154819D02*
X56062714Y-139154819D01*
X56062714Y-139154819D02*
X56443666Y-139154819D01*
X56443666Y-139154819D02*
X56538904Y-139202438D01*
X56538904Y-139202438D02*
X56586523Y-139250057D01*
X56586523Y-139250057D02*
X56634142Y-139345295D01*
X56634142Y-139345295D02*
X56634142Y-139488152D01*
X56634142Y-139488152D02*
X56586523Y-139583390D01*
X56586523Y-139583390D02*
X56538904Y-139631009D01*
X56538904Y-139631009D02*
X56443666Y-139678628D01*
X56443666Y-139678628D02*
X56062714Y-139678628D01*
X57586523Y-140154819D02*
X57015095Y-140154819D01*
X57300809Y-140154819D02*
X57300809Y-139154819D01*
X57300809Y-139154819D02*
X57205571Y-139297676D01*
X57205571Y-139297676D02*
X57110333Y-139392914D01*
X57110333Y-139392914D02*
X57015095Y-139440533D01*
X58491285Y-139154819D02*
X58015095Y-139154819D01*
X58015095Y-139154819D02*
X57967476Y-139631009D01*
X57967476Y-139631009D02*
X58015095Y-139583390D01*
X58015095Y-139583390D02*
X58110333Y-139535771D01*
X58110333Y-139535771D02*
X58348428Y-139535771D01*
X58348428Y-139535771D02*
X58443666Y-139583390D01*
X58443666Y-139583390D02*
X58491285Y-139631009D01*
X58491285Y-139631009D02*
X58538904Y-139726247D01*
X58538904Y-139726247D02*
X58538904Y-139964342D01*
X58538904Y-139964342D02*
X58491285Y-140059580D01*
X58491285Y-140059580D02*
X58443666Y-140107200D01*
X58443666Y-140107200D02*
X58348428Y-140154819D01*
X58348428Y-140154819D02*
X58110333Y-140154819D01*
X58110333Y-140154819D02*
X58015095Y-140107200D01*
X58015095Y-140107200D02*
X57967476Y-140059580D01*
X77303333Y-129391580D02*
X77255714Y-129439200D01*
X77255714Y-129439200D02*
X77112857Y-129486819D01*
X77112857Y-129486819D02*
X77017619Y-129486819D01*
X77017619Y-129486819D02*
X76874762Y-129439200D01*
X76874762Y-129439200D02*
X76779524Y-129343961D01*
X76779524Y-129343961D02*
X76731905Y-129248723D01*
X76731905Y-129248723D02*
X76684286Y-129058247D01*
X76684286Y-129058247D02*
X76684286Y-128915390D01*
X76684286Y-128915390D02*
X76731905Y-128724914D01*
X76731905Y-128724914D02*
X76779524Y-128629676D01*
X76779524Y-128629676D02*
X76874762Y-128534438D01*
X76874762Y-128534438D02*
X77017619Y-128486819D01*
X77017619Y-128486819D02*
X77112857Y-128486819D01*
X77112857Y-128486819D02*
X77255714Y-128534438D01*
X77255714Y-128534438D02*
X77303333Y-128582057D01*
X78208095Y-128486819D02*
X77731905Y-128486819D01*
X77731905Y-128486819D02*
X77684286Y-128963009D01*
X77684286Y-128963009D02*
X77731905Y-128915390D01*
X77731905Y-128915390D02*
X77827143Y-128867771D01*
X77827143Y-128867771D02*
X78065238Y-128867771D01*
X78065238Y-128867771D02*
X78160476Y-128915390D01*
X78160476Y-128915390D02*
X78208095Y-128963009D01*
X78208095Y-128963009D02*
X78255714Y-129058247D01*
X78255714Y-129058247D02*
X78255714Y-129296342D01*
X78255714Y-129296342D02*
X78208095Y-129391580D01*
X78208095Y-129391580D02*
X78160476Y-129439200D01*
X78160476Y-129439200D02*
X78065238Y-129486819D01*
X78065238Y-129486819D02*
X77827143Y-129486819D01*
X77827143Y-129486819D02*
X77731905Y-129439200D01*
X77731905Y-129439200D02*
X77684286Y-129391580D01*
X62222142Y-144854819D02*
X61888809Y-144378628D01*
X61650714Y-144854819D02*
X61650714Y-143854819D01*
X61650714Y-143854819D02*
X62031666Y-143854819D01*
X62031666Y-143854819D02*
X62126904Y-143902438D01*
X62126904Y-143902438D02*
X62174523Y-143950057D01*
X62174523Y-143950057D02*
X62222142Y-144045295D01*
X62222142Y-144045295D02*
X62222142Y-144188152D01*
X62222142Y-144188152D02*
X62174523Y-144283390D01*
X62174523Y-144283390D02*
X62126904Y-144331009D01*
X62126904Y-144331009D02*
X62031666Y-144378628D01*
X62031666Y-144378628D02*
X61650714Y-144378628D01*
X63174523Y-144854819D02*
X62603095Y-144854819D01*
X62888809Y-144854819D02*
X62888809Y-143854819D01*
X62888809Y-143854819D02*
X62793571Y-143997676D01*
X62793571Y-143997676D02*
X62698333Y-144092914D01*
X62698333Y-144092914D02*
X62603095Y-144140533D01*
X64031666Y-144188152D02*
X64031666Y-144854819D01*
X63793571Y-143807200D02*
X63555476Y-144521485D01*
X63555476Y-144521485D02*
X64174523Y-144521485D01*
X79448819Y-139612666D02*
X78972628Y-139945999D01*
X79448819Y-140184094D02*
X78448819Y-140184094D01*
X78448819Y-140184094D02*
X78448819Y-139803142D01*
X78448819Y-139803142D02*
X78496438Y-139707904D01*
X78496438Y-139707904D02*
X78544057Y-139660285D01*
X78544057Y-139660285D02*
X78639295Y-139612666D01*
X78639295Y-139612666D02*
X78782152Y-139612666D01*
X78782152Y-139612666D02*
X78877390Y-139660285D01*
X78877390Y-139660285D02*
X78925009Y-139707904D01*
X78925009Y-139707904D02*
X78972628Y-139803142D01*
X78972628Y-139803142D02*
X78972628Y-140184094D01*
X79448819Y-139136475D02*
X79448819Y-138945999D01*
X79448819Y-138945999D02*
X79401200Y-138850761D01*
X79401200Y-138850761D02*
X79353580Y-138803142D01*
X79353580Y-138803142D02*
X79210723Y-138707904D01*
X79210723Y-138707904D02*
X79020247Y-138660285D01*
X79020247Y-138660285D02*
X78639295Y-138660285D01*
X78639295Y-138660285D02*
X78544057Y-138707904D01*
X78544057Y-138707904D02*
X78496438Y-138755523D01*
X78496438Y-138755523D02*
X78448819Y-138850761D01*
X78448819Y-138850761D02*
X78448819Y-139041237D01*
X78448819Y-139041237D02*
X78496438Y-139136475D01*
X78496438Y-139136475D02*
X78544057Y-139184094D01*
X78544057Y-139184094D02*
X78639295Y-139231713D01*
X78639295Y-139231713D02*
X78877390Y-139231713D01*
X78877390Y-139231713D02*
X78972628Y-139184094D01*
X78972628Y-139184094D02*
X79020247Y-139136475D01*
X79020247Y-139136475D02*
X79067866Y-139041237D01*
X79067866Y-139041237D02*
X79067866Y-138850761D01*
X79067866Y-138850761D02*
X79020247Y-138755523D01*
X79020247Y-138755523D02*
X78972628Y-138707904D01*
X78972628Y-138707904D02*
X78877390Y-138660285D01*
X65111333Y-132154819D02*
X64778000Y-131678628D01*
X64539905Y-132154819D02*
X64539905Y-131154819D01*
X64539905Y-131154819D02*
X64920857Y-131154819D01*
X64920857Y-131154819D02*
X65016095Y-131202438D01*
X65016095Y-131202438D02*
X65063714Y-131250057D01*
X65063714Y-131250057D02*
X65111333Y-131345295D01*
X65111333Y-131345295D02*
X65111333Y-131488152D01*
X65111333Y-131488152D02*
X65063714Y-131583390D01*
X65063714Y-131583390D02*
X65016095Y-131631009D01*
X65016095Y-131631009D02*
X64920857Y-131678628D01*
X64920857Y-131678628D02*
X64539905Y-131678628D01*
X65968476Y-131488152D02*
X65968476Y-132154819D01*
X65730381Y-131107200D02*
X65492286Y-131821485D01*
X65492286Y-131821485D02*
X66111333Y-131821485D01*
X65873333Y-128216819D02*
X65540000Y-127740628D01*
X65301905Y-128216819D02*
X65301905Y-127216819D01*
X65301905Y-127216819D02*
X65682857Y-127216819D01*
X65682857Y-127216819D02*
X65778095Y-127264438D01*
X65778095Y-127264438D02*
X65825714Y-127312057D01*
X65825714Y-127312057D02*
X65873333Y-127407295D01*
X65873333Y-127407295D02*
X65873333Y-127550152D01*
X65873333Y-127550152D02*
X65825714Y-127645390D01*
X65825714Y-127645390D02*
X65778095Y-127693009D01*
X65778095Y-127693009D02*
X65682857Y-127740628D01*
X65682857Y-127740628D02*
X65301905Y-127740628D01*
X66254286Y-127312057D02*
X66301905Y-127264438D01*
X66301905Y-127264438D02*
X66397143Y-127216819D01*
X66397143Y-127216819D02*
X66635238Y-127216819D01*
X66635238Y-127216819D02*
X66730476Y-127264438D01*
X66730476Y-127264438D02*
X66778095Y-127312057D01*
X66778095Y-127312057D02*
X66825714Y-127407295D01*
X66825714Y-127407295D02*
X66825714Y-127502533D01*
X66825714Y-127502533D02*
X66778095Y-127645390D01*
X66778095Y-127645390D02*
X66206667Y-128216819D01*
X66206667Y-128216819D02*
X66825714Y-128216819D01*
X89099819Y-133357857D02*
X88623628Y-133691190D01*
X89099819Y-133929285D02*
X88099819Y-133929285D01*
X88099819Y-133929285D02*
X88099819Y-133548333D01*
X88099819Y-133548333D02*
X88147438Y-133453095D01*
X88147438Y-133453095D02*
X88195057Y-133405476D01*
X88195057Y-133405476D02*
X88290295Y-133357857D01*
X88290295Y-133357857D02*
X88433152Y-133357857D01*
X88433152Y-133357857D02*
X88528390Y-133405476D01*
X88528390Y-133405476D02*
X88576009Y-133453095D01*
X88576009Y-133453095D02*
X88623628Y-133548333D01*
X88623628Y-133548333D02*
X88623628Y-133929285D01*
X89099819Y-132405476D02*
X89099819Y-132976904D01*
X89099819Y-132691190D02*
X88099819Y-132691190D01*
X88099819Y-132691190D02*
X88242676Y-132786428D01*
X88242676Y-132786428D02*
X88337914Y-132881666D01*
X88337914Y-132881666D02*
X88385533Y-132976904D01*
X88195057Y-132024523D02*
X88147438Y-131976904D01*
X88147438Y-131976904D02*
X88099819Y-131881666D01*
X88099819Y-131881666D02*
X88099819Y-131643571D01*
X88099819Y-131643571D02*
X88147438Y-131548333D01*
X88147438Y-131548333D02*
X88195057Y-131500714D01*
X88195057Y-131500714D02*
X88290295Y-131453095D01*
X88290295Y-131453095D02*
X88385533Y-131453095D01*
X88385533Y-131453095D02*
X88528390Y-131500714D01*
X88528390Y-131500714D02*
X89099819Y-132072142D01*
X89099819Y-132072142D02*
X89099819Y-131453095D01*
X51347905Y-133011104D02*
X51824095Y-133011104D01*
X51252667Y-133296819D02*
X51586000Y-132296819D01*
X51586000Y-132296819D02*
X51919333Y-133296819D01*
X52586000Y-132773009D02*
X52252667Y-132773009D01*
X52252667Y-133296819D02*
X52252667Y-132296819D01*
X52252667Y-132296819D02*
X52728857Y-132296819D01*
X53871715Y-133296819D02*
X53871715Y-132630152D01*
X53871715Y-132296819D02*
X53824096Y-132344438D01*
X53824096Y-132344438D02*
X53871715Y-132392057D01*
X53871715Y-132392057D02*
X53919334Y-132344438D01*
X53919334Y-132344438D02*
X53871715Y-132296819D01*
X53871715Y-132296819D02*
X53871715Y-132392057D01*
X54347905Y-132630152D02*
X54347905Y-133296819D01*
X54347905Y-132725390D02*
X54395524Y-132677771D01*
X54395524Y-132677771D02*
X54490762Y-132630152D01*
X54490762Y-132630152D02*
X54633619Y-132630152D01*
X54633619Y-132630152D02*
X54728857Y-132677771D01*
X54728857Y-132677771D02*
X54776476Y-132773009D01*
X54776476Y-132773009D02*
X54776476Y-133296819D01*
X52197095Y-147409819D02*
X52197095Y-148219342D01*
X52197095Y-148219342D02*
X52244714Y-148314580D01*
X52244714Y-148314580D02*
X52292333Y-148362200D01*
X52292333Y-148362200D02*
X52387571Y-148409819D01*
X52387571Y-148409819D02*
X52578047Y-148409819D01*
X52578047Y-148409819D02*
X52673285Y-148362200D01*
X52673285Y-148362200D02*
X52720904Y-148314580D01*
X52720904Y-148314580D02*
X52768523Y-148219342D01*
X52768523Y-148219342D02*
X52768523Y-147409819D01*
X53768523Y-148409819D02*
X53197095Y-148409819D01*
X53482809Y-148409819D02*
X53482809Y-147409819D01*
X53482809Y-147409819D02*
X53387571Y-147552676D01*
X53387571Y-147552676D02*
X53292333Y-147647914D01*
X53292333Y-147647914D02*
X53197095Y-147695533D01*
X67937142Y-142091580D02*
X67889523Y-142139200D01*
X67889523Y-142139200D02*
X67746666Y-142186819D01*
X67746666Y-142186819D02*
X67651428Y-142186819D01*
X67651428Y-142186819D02*
X67508571Y-142139200D01*
X67508571Y-142139200D02*
X67413333Y-142043961D01*
X67413333Y-142043961D02*
X67365714Y-141948723D01*
X67365714Y-141948723D02*
X67318095Y-141758247D01*
X67318095Y-141758247D02*
X67318095Y-141615390D01*
X67318095Y-141615390D02*
X67365714Y-141424914D01*
X67365714Y-141424914D02*
X67413333Y-141329676D01*
X67413333Y-141329676D02*
X67508571Y-141234438D01*
X67508571Y-141234438D02*
X67651428Y-141186819D01*
X67651428Y-141186819D02*
X67746666Y-141186819D01*
X67746666Y-141186819D02*
X67889523Y-141234438D01*
X67889523Y-141234438D02*
X67937142Y-141282057D01*
X68889523Y-142186819D02*
X68318095Y-142186819D01*
X68603809Y-142186819D02*
X68603809Y-141186819D01*
X68603809Y-141186819D02*
X68508571Y-141329676D01*
X68508571Y-141329676D02*
X68413333Y-141424914D01*
X68413333Y-141424914D02*
X68318095Y-141472533D01*
X69841904Y-142186819D02*
X69270476Y-142186819D01*
X69556190Y-142186819D02*
X69556190Y-141186819D01*
X69556190Y-141186819D02*
X69460952Y-141329676D01*
X69460952Y-141329676D02*
X69365714Y-141424914D01*
X69365714Y-141424914D02*
X69270476Y-141472533D01*
X87534761Y-142930057D02*
X87439523Y-142882438D01*
X87439523Y-142882438D02*
X87344285Y-142787200D01*
X87344285Y-142787200D02*
X87201428Y-142644342D01*
X87201428Y-142644342D02*
X87106190Y-142596723D01*
X87106190Y-142596723D02*
X87010952Y-142596723D01*
X87058571Y-142834819D02*
X86963333Y-142787200D01*
X86963333Y-142787200D02*
X86868095Y-142691961D01*
X86868095Y-142691961D02*
X86820476Y-142501485D01*
X86820476Y-142501485D02*
X86820476Y-142168152D01*
X86820476Y-142168152D02*
X86868095Y-141977676D01*
X86868095Y-141977676D02*
X86963333Y-141882438D01*
X86963333Y-141882438D02*
X87058571Y-141834819D01*
X87058571Y-141834819D02*
X87249047Y-141834819D01*
X87249047Y-141834819D02*
X87344285Y-141882438D01*
X87344285Y-141882438D02*
X87439523Y-141977676D01*
X87439523Y-141977676D02*
X87487142Y-142168152D01*
X87487142Y-142168152D02*
X87487142Y-142501485D01*
X87487142Y-142501485D02*
X87439523Y-142691961D01*
X87439523Y-142691961D02*
X87344285Y-142787200D01*
X87344285Y-142787200D02*
X87249047Y-142834819D01*
X87249047Y-142834819D02*
X87058571Y-142834819D01*
X88344285Y-142168152D02*
X88344285Y-142834819D01*
X88106190Y-141787200D02*
X87868095Y-142501485D01*
X87868095Y-142501485D02*
X88487142Y-142501485D01*
X61705833Y-128344819D02*
X61372500Y-127868628D01*
X61134405Y-128344819D02*
X61134405Y-127344819D01*
X61134405Y-127344819D02*
X61515357Y-127344819D01*
X61515357Y-127344819D02*
X61610595Y-127392438D01*
X61610595Y-127392438D02*
X61658214Y-127440057D01*
X61658214Y-127440057D02*
X61705833Y-127535295D01*
X61705833Y-127535295D02*
X61705833Y-127678152D01*
X61705833Y-127678152D02*
X61658214Y-127773390D01*
X61658214Y-127773390D02*
X61610595Y-127821009D01*
X61610595Y-127821009D02*
X61515357Y-127868628D01*
X61515357Y-127868628D02*
X61134405Y-127868628D01*
X62658214Y-128344819D02*
X62086786Y-128344819D01*
X62372500Y-128344819D02*
X62372500Y-127344819D01*
X62372500Y-127344819D02*
X62277262Y-127487676D01*
X62277262Y-127487676D02*
X62182024Y-127582914D01*
X62182024Y-127582914D02*
X62086786Y-127630533D01*
X68526819Y-131334166D02*
X68050628Y-131667499D01*
X68526819Y-131905594D02*
X67526819Y-131905594D01*
X67526819Y-131905594D02*
X67526819Y-131524642D01*
X67526819Y-131524642D02*
X67574438Y-131429404D01*
X67574438Y-131429404D02*
X67622057Y-131381785D01*
X67622057Y-131381785D02*
X67717295Y-131334166D01*
X67717295Y-131334166D02*
X67860152Y-131334166D01*
X67860152Y-131334166D02*
X67955390Y-131381785D01*
X67955390Y-131381785D02*
X68003009Y-131429404D01*
X68003009Y-131429404D02*
X68050628Y-131524642D01*
X68050628Y-131524642D02*
X68050628Y-131905594D01*
X67526819Y-130429404D02*
X67526819Y-130905594D01*
X67526819Y-130905594D02*
X68003009Y-130953213D01*
X68003009Y-130953213D02*
X67955390Y-130905594D01*
X67955390Y-130905594D02*
X67907771Y-130810356D01*
X67907771Y-130810356D02*
X67907771Y-130572261D01*
X67907771Y-130572261D02*
X67955390Y-130477023D01*
X67955390Y-130477023D02*
X68003009Y-130429404D01*
X68003009Y-130429404D02*
X68098247Y-130381785D01*
X68098247Y-130381785D02*
X68336342Y-130381785D01*
X68336342Y-130381785D02*
X68431580Y-130429404D01*
X68431580Y-130429404D02*
X68479200Y-130477023D01*
X68479200Y-130477023D02*
X68526819Y-130572261D01*
X68526819Y-130572261D02*
X68526819Y-130810356D01*
X68526819Y-130810356D02*
X68479200Y-130905594D01*
X68479200Y-130905594D02*
X68431580Y-130953213D01*
X64635142Y-138789580D02*
X64587523Y-138837200D01*
X64587523Y-138837200D02*
X64444666Y-138884819D01*
X64444666Y-138884819D02*
X64349428Y-138884819D01*
X64349428Y-138884819D02*
X64206571Y-138837200D01*
X64206571Y-138837200D02*
X64111333Y-138741961D01*
X64111333Y-138741961D02*
X64063714Y-138646723D01*
X64063714Y-138646723D02*
X64016095Y-138456247D01*
X64016095Y-138456247D02*
X64016095Y-138313390D01*
X64016095Y-138313390D02*
X64063714Y-138122914D01*
X64063714Y-138122914D02*
X64111333Y-138027676D01*
X64111333Y-138027676D02*
X64206571Y-137932438D01*
X64206571Y-137932438D02*
X64349428Y-137884819D01*
X64349428Y-137884819D02*
X64444666Y-137884819D01*
X64444666Y-137884819D02*
X64587523Y-137932438D01*
X64587523Y-137932438D02*
X64635142Y-137980057D01*
X65587523Y-138884819D02*
X65016095Y-138884819D01*
X65301809Y-138884819D02*
X65301809Y-137884819D01*
X65301809Y-137884819D02*
X65206571Y-138027676D01*
X65206571Y-138027676D02*
X65111333Y-138122914D01*
X65111333Y-138122914D02*
X65016095Y-138170533D01*
X66492285Y-137884819D02*
X66016095Y-137884819D01*
X66016095Y-137884819D02*
X65968476Y-138361009D01*
X65968476Y-138361009D02*
X66016095Y-138313390D01*
X66016095Y-138313390D02*
X66111333Y-138265771D01*
X66111333Y-138265771D02*
X66349428Y-138265771D01*
X66349428Y-138265771D02*
X66444666Y-138313390D01*
X66444666Y-138313390D02*
X66492285Y-138361009D01*
X66492285Y-138361009D02*
X66539904Y-138456247D01*
X66539904Y-138456247D02*
X66539904Y-138694342D01*
X66539904Y-138694342D02*
X66492285Y-138789580D01*
X66492285Y-138789580D02*
X66444666Y-138837200D01*
X66444666Y-138837200D02*
X66349428Y-138884819D01*
X66349428Y-138884819D02*
X66111333Y-138884819D01*
X66111333Y-138884819D02*
X66016095Y-138837200D01*
X66016095Y-138837200D02*
X65968476Y-138789580D01*
X76655819Y-133794166D02*
X76179628Y-134127499D01*
X76655819Y-134365594D02*
X75655819Y-134365594D01*
X75655819Y-134365594D02*
X75655819Y-133984642D01*
X75655819Y-133984642D02*
X75703438Y-133889404D01*
X75703438Y-133889404D02*
X75751057Y-133841785D01*
X75751057Y-133841785D02*
X75846295Y-133794166D01*
X75846295Y-133794166D02*
X75989152Y-133794166D01*
X75989152Y-133794166D02*
X76084390Y-133841785D01*
X76084390Y-133841785D02*
X76132009Y-133889404D01*
X76132009Y-133889404D02*
X76179628Y-133984642D01*
X76179628Y-133984642D02*
X76179628Y-134365594D01*
X76084390Y-133222737D02*
X76036771Y-133317975D01*
X76036771Y-133317975D02*
X75989152Y-133365594D01*
X75989152Y-133365594D02*
X75893914Y-133413213D01*
X75893914Y-133413213D02*
X75846295Y-133413213D01*
X75846295Y-133413213D02*
X75751057Y-133365594D01*
X75751057Y-133365594D02*
X75703438Y-133317975D01*
X75703438Y-133317975D02*
X75655819Y-133222737D01*
X75655819Y-133222737D02*
X75655819Y-133032261D01*
X75655819Y-133032261D02*
X75703438Y-132937023D01*
X75703438Y-132937023D02*
X75751057Y-132889404D01*
X75751057Y-132889404D02*
X75846295Y-132841785D01*
X75846295Y-132841785D02*
X75893914Y-132841785D01*
X75893914Y-132841785D02*
X75989152Y-132889404D01*
X75989152Y-132889404D02*
X76036771Y-132937023D01*
X76036771Y-132937023D02*
X76084390Y-133032261D01*
X76084390Y-133032261D02*
X76084390Y-133222737D01*
X76084390Y-133222737D02*
X76132009Y-133317975D01*
X76132009Y-133317975D02*
X76179628Y-133365594D01*
X76179628Y-133365594D02*
X76274866Y-133413213D01*
X76274866Y-133413213D02*
X76465342Y-133413213D01*
X76465342Y-133413213D02*
X76560580Y-133365594D01*
X76560580Y-133365594D02*
X76608200Y-133317975D01*
X76608200Y-133317975D02*
X76655819Y-133222737D01*
X76655819Y-133222737D02*
X76655819Y-133032261D01*
X76655819Y-133032261D02*
X76608200Y-132937023D01*
X76608200Y-132937023D02*
X76560580Y-132889404D01*
X76560580Y-132889404D02*
X76465342Y-132841785D01*
X76465342Y-132841785D02*
X76274866Y-132841785D01*
X76274866Y-132841785D02*
X76179628Y-132889404D01*
X76179628Y-132889404D02*
X76132009Y-132937023D01*
X76132009Y-132937023D02*
X76084390Y-133032261D01*
X56096819Y-154511237D02*
X57096819Y-154177904D01*
X57096819Y-154177904D02*
X56096819Y-153844571D01*
X57096819Y-153511237D02*
X56096819Y-153511237D01*
X57096819Y-153035047D02*
X56096819Y-153035047D01*
X56096819Y-153035047D02*
X57096819Y-152463619D01*
X57096819Y-152463619D02*
X56096819Y-152463619D01*
X80637142Y-145234819D02*
X80303809Y-144758628D01*
X80065714Y-145234819D02*
X80065714Y-144234819D01*
X80065714Y-144234819D02*
X80446666Y-144234819D01*
X80446666Y-144234819D02*
X80541904Y-144282438D01*
X80541904Y-144282438D02*
X80589523Y-144330057D01*
X80589523Y-144330057D02*
X80637142Y-144425295D01*
X80637142Y-144425295D02*
X80637142Y-144568152D01*
X80637142Y-144568152D02*
X80589523Y-144663390D01*
X80589523Y-144663390D02*
X80541904Y-144711009D01*
X80541904Y-144711009D02*
X80446666Y-144758628D01*
X80446666Y-144758628D02*
X80065714Y-144758628D01*
X81589523Y-145234819D02*
X81018095Y-145234819D01*
X81303809Y-145234819D02*
X81303809Y-144234819D01*
X81303809Y-144234819D02*
X81208571Y-144377676D01*
X81208571Y-144377676D02*
X81113333Y-144472914D01*
X81113333Y-144472914D02*
X81018095Y-144520533D01*
X81922857Y-144234819D02*
X82541904Y-144234819D01*
X82541904Y-144234819D02*
X82208571Y-144615771D01*
X82208571Y-144615771D02*
X82351428Y-144615771D01*
X82351428Y-144615771D02*
X82446666Y-144663390D01*
X82446666Y-144663390D02*
X82494285Y-144711009D01*
X82494285Y-144711009D02*
X82541904Y-144806247D01*
X82541904Y-144806247D02*
X82541904Y-145044342D01*
X82541904Y-145044342D02*
X82494285Y-145139580D01*
X82494285Y-145139580D02*
X82446666Y-145187200D01*
X82446666Y-145187200D02*
X82351428Y-145234819D01*
X82351428Y-145234819D02*
X82065714Y-145234819D01*
X82065714Y-145234819D02*
X81970476Y-145187200D01*
X81970476Y-145187200D02*
X81922857Y-145139580D01*
X71336819Y-153868333D02*
X71336819Y-153677857D01*
X71336819Y-153677857D02*
X71384438Y-153582619D01*
X71384438Y-153582619D02*
X71479676Y-153487381D01*
X71479676Y-153487381D02*
X71670152Y-153439762D01*
X71670152Y-153439762D02*
X72003485Y-153439762D01*
X72003485Y-153439762D02*
X72193961Y-153487381D01*
X72193961Y-153487381D02*
X72289200Y-153582619D01*
X72289200Y-153582619D02*
X72336819Y-153677857D01*
X72336819Y-153677857D02*
X72336819Y-153868333D01*
X72336819Y-153868333D02*
X72289200Y-153963571D01*
X72289200Y-153963571D02*
X72193961Y-154058809D01*
X72193961Y-154058809D02*
X72003485Y-154106428D01*
X72003485Y-154106428D02*
X71670152Y-154106428D01*
X71670152Y-154106428D02*
X71479676Y-154058809D01*
X71479676Y-154058809D02*
X71384438Y-153963571D01*
X71384438Y-153963571D02*
X71336819Y-153868333D01*
X71670152Y-152582619D02*
X72336819Y-152582619D01*
X71670152Y-153011190D02*
X72193961Y-153011190D01*
X72193961Y-153011190D02*
X72289200Y-152963571D01*
X72289200Y-152963571D02*
X72336819Y-152868333D01*
X72336819Y-152868333D02*
X72336819Y-152725476D01*
X72336819Y-152725476D02*
X72289200Y-152630238D01*
X72289200Y-152630238D02*
X72241580Y-152582619D01*
X71670152Y-152249285D02*
X71670152Y-151868333D01*
X71336819Y-152106428D02*
X72193961Y-152106428D01*
X72193961Y-152106428D02*
X72289200Y-152058809D01*
X72289200Y-152058809D02*
X72336819Y-151963571D01*
X72336819Y-151963571D02*
X72336819Y-151868333D01*
D11*
X88003748Y-139600000D02*
X88526252Y-139600000D01*
X88003748Y-141070000D02*
X88526252Y-141070000D01*
X73660000Y-132552000D02*
X73010000Y-132552000D01*
X73660000Y-132552000D02*
X74310000Y-132552000D01*
X73660000Y-135672000D02*
X73010000Y-135672000D01*
X73660000Y-135672000D02*
X74310000Y-135672000D01*
X72497500Y-132602000D02*
X72257500Y-132272000D01*
X72737500Y-132272000D01*
X72497500Y-132602000D01*
G36*
X72497500Y-132602000D02*
G01*
X72257500Y-132272000D01*
X72737500Y-132272000D01*
X72497500Y-132602000D01*
G37*
X76888748Y-136679000D02*
X77411252Y-136679000D01*
X76888748Y-138149000D02*
X77411252Y-138149000D01*
X56415000Y-133291252D02*
X56415000Y-132768748D01*
X57885000Y-133291252D02*
X57885000Y-132768748D01*
X72891380Y-144547000D02*
X72891380Y-143743000D01*
X72931380Y-144778000D02*
X72931380Y-143512000D01*
X72971380Y-144947000D02*
X72971380Y-143343000D01*
X73011380Y-145085000D02*
X73011380Y-143205000D01*
X73051380Y-145204000D02*
X73051380Y-143086000D01*
X73091380Y-145310000D02*
X73091380Y-142980000D01*
X73131380Y-145407000D02*
X73131380Y-142883000D01*
X73171380Y-145495000D02*
X73171380Y-142795000D01*
X73211380Y-145577000D02*
X73211380Y-142713000D01*
X73251380Y-145654000D02*
X73251380Y-142636000D01*
X73291380Y-145726000D02*
X73291380Y-142564000D01*
X73331380Y-145795000D02*
X73331380Y-142495000D01*
X73371380Y-145859000D02*
X73371380Y-142431000D01*
X73411380Y-145921000D02*
X73411380Y-142369000D01*
X73451380Y-145979000D02*
X73451380Y-142311000D01*
X73491380Y-146035000D02*
X73491380Y-142255000D01*
X73531380Y-146089000D02*
X73531380Y-142201000D01*
X73571380Y-146140000D02*
X73571380Y-142150000D01*
X73611380Y-146189000D02*
X73611380Y-142101000D01*
X73651380Y-146237000D02*
X73651380Y-142053000D01*
X73691380Y-146282000D02*
X73691380Y-142008000D01*
X73731380Y-146327000D02*
X73731380Y-141963000D01*
X73771380Y-146369000D02*
X73771380Y-141921000D01*
X73811380Y-146410000D02*
X73811380Y-141880000D01*
X73851380Y-143105000D02*
X73851380Y-141840000D01*
X73851380Y-146450000D02*
X73851380Y-145185000D01*
X73891380Y-143105000D02*
X73891380Y-141802000D01*
X73891380Y-146488000D02*
X73891380Y-145185000D01*
X73931380Y-143105000D02*
X73931380Y-141765000D01*
X73931380Y-146525000D02*
X73931380Y-145185000D01*
X73971380Y-143105000D02*
X73971380Y-141729000D01*
X73971380Y-146561000D02*
X73971380Y-145185000D01*
X74011380Y-143105000D02*
X74011380Y-141695000D01*
X74011380Y-146595000D02*
X74011380Y-145185000D01*
X74051380Y-143105000D02*
X74051380Y-141661000D01*
X74051380Y-146629000D02*
X74051380Y-145185000D01*
X74091380Y-143105000D02*
X74091380Y-141629000D01*
X74091380Y-146661000D02*
X74091380Y-145185000D01*
X74131380Y-143105000D02*
X74131380Y-141597000D01*
X74131380Y-146693000D02*
X74131380Y-145185000D01*
X74171380Y-143105000D02*
X74171380Y-141567000D01*
X74171380Y-146723000D02*
X74171380Y-145185000D01*
X74211380Y-143105000D02*
X74211380Y-141538000D01*
X74211380Y-146752000D02*
X74211380Y-145185000D01*
X74251380Y-143105000D02*
X74251380Y-141509000D01*
X74251380Y-146781000D02*
X74251380Y-145185000D01*
X74291380Y-143105000D02*
X74291380Y-141481000D01*
X74291380Y-146809000D02*
X74291380Y-145185000D01*
X74331380Y-143105000D02*
X74331380Y-141455000D01*
X74331380Y-146835000D02*
X74331380Y-145185000D01*
X74371380Y-143105000D02*
X74371380Y-141429000D01*
X74371380Y-146861000D02*
X74371380Y-145185000D01*
X74411380Y-143105000D02*
X74411380Y-141403000D01*
X74411380Y-146887000D02*
X74411380Y-145185000D01*
X74451380Y-143105000D02*
X74451380Y-141379000D01*
X74451380Y-146911000D02*
X74451380Y-145185000D01*
X74491380Y-143105000D02*
X74491380Y-141355000D01*
X74491380Y-146935000D02*
X74491380Y-145185000D01*
X74531380Y-143105000D02*
X74531380Y-141333000D01*
X74531380Y-146957000D02*
X74531380Y-145185000D01*
X74571380Y-143105000D02*
X74571380Y-141311000D01*
X74571380Y-146979000D02*
X74571380Y-145185000D01*
X74611380Y-143105000D02*
X74611380Y-141289000D01*
X74611380Y-147001000D02*
X74611380Y-145185000D01*
X74651380Y-143105000D02*
X74651380Y-141269000D01*
X74651380Y-147021000D02*
X74651380Y-145185000D01*
X74691380Y-143105000D02*
X74691380Y-141249000D01*
X74691380Y-147041000D02*
X74691380Y-145185000D01*
X74731380Y-143105000D02*
X74731380Y-141229000D01*
X74731380Y-147061000D02*
X74731380Y-145185000D01*
X74771380Y-143105000D02*
X74771380Y-141211000D01*
X74771380Y-147079000D02*
X74771380Y-145185000D01*
X74811380Y-143105000D02*
X74811380Y-141193000D01*
X74811380Y-147097000D02*
X74811380Y-145185000D01*
X74851380Y-143105000D02*
X74851380Y-141175000D01*
X74851380Y-147115000D02*
X74851380Y-145185000D01*
X74891380Y-143105000D02*
X74891380Y-141159000D01*
X74891380Y-147131000D02*
X74891380Y-145185000D01*
X74931380Y-143105000D02*
X74931380Y-141143000D01*
X74931380Y-147147000D02*
X74931380Y-145185000D01*
X74971380Y-143105000D02*
X74971380Y-141127000D01*
X74971380Y-147163000D02*
X74971380Y-145185000D01*
X75011380Y-143105000D02*
X75011380Y-141112000D01*
X75011380Y-147178000D02*
X75011380Y-145185000D01*
X75051380Y-143105000D02*
X75051380Y-141098000D01*
X75051380Y-147192000D02*
X75051380Y-145185000D01*
X75091380Y-143105000D02*
X75091380Y-141084000D01*
X75091380Y-147206000D02*
X75091380Y-145185000D01*
X75131380Y-143105000D02*
X75131380Y-141071000D01*
X75131380Y-147219000D02*
X75131380Y-145185000D01*
X75171380Y-143105000D02*
X75171380Y-141059000D01*
X75171380Y-147231000D02*
X75171380Y-145185000D01*
X75211380Y-143105000D02*
X75211380Y-141047000D01*
X75211380Y-147243000D02*
X75211380Y-145185000D01*
X75251380Y-143105000D02*
X75251380Y-141035000D01*
X75251380Y-147255000D02*
X75251380Y-145185000D01*
X75291380Y-143105000D02*
X75291380Y-141024000D01*
X75291380Y-147266000D02*
X75291380Y-145185000D01*
X75331380Y-143105000D02*
X75331380Y-141014000D01*
X75331380Y-147276000D02*
X75331380Y-145185000D01*
X75371380Y-143105000D02*
X75371380Y-141004000D01*
X75371380Y-147286000D02*
X75371380Y-145185000D01*
X75411380Y-143105000D02*
X75411380Y-140995000D01*
X75411380Y-147295000D02*
X75411380Y-145185000D01*
X75452380Y-143105000D02*
X75452380Y-140986000D01*
X75452380Y-147304000D02*
X75452380Y-145185000D01*
X75492380Y-143105000D02*
X75492380Y-140978000D01*
X75492380Y-147312000D02*
X75492380Y-145185000D01*
X75532380Y-143105000D02*
X75532380Y-140970000D01*
X75532380Y-147320000D02*
X75532380Y-145185000D01*
X75572380Y-143105000D02*
X75572380Y-140963000D01*
X75572380Y-147327000D02*
X75572380Y-145185000D01*
X75612380Y-143105000D02*
X75612380Y-140956000D01*
X75612380Y-147334000D02*
X75612380Y-145185000D01*
X75652380Y-143105000D02*
X75652380Y-140950000D01*
X75652380Y-147340000D02*
X75652380Y-145185000D01*
X75692380Y-143105000D02*
X75692380Y-140944000D01*
X75692380Y-147346000D02*
X75692380Y-145185000D01*
X75732380Y-143105000D02*
X75732380Y-140939000D01*
X75732380Y-147351000D02*
X75732380Y-145185000D01*
X75772380Y-143105000D02*
X75772380Y-140934000D01*
X75772380Y-147356000D02*
X75772380Y-145185000D01*
X75812380Y-143105000D02*
X75812380Y-140930000D01*
X75812380Y-147360000D02*
X75812380Y-145185000D01*
X75852380Y-143105000D02*
X75852380Y-140927000D01*
X75852380Y-147363000D02*
X75852380Y-145185000D01*
X75892380Y-143105000D02*
X75892380Y-140923000D01*
X75892380Y-147367000D02*
X75892380Y-145185000D01*
X75932380Y-147369000D02*
X75932380Y-140921000D01*
X75972380Y-147372000D02*
X75972380Y-140918000D01*
X76012380Y-147373000D02*
X76012380Y-140917000D01*
X76052380Y-147375000D02*
X76052380Y-140915000D01*
X76092380Y-147375000D02*
X76092380Y-140915000D01*
X76132380Y-147375000D02*
X76132380Y-140915000D01*
X79317621Y-146299000D02*
X79317621Y-145669000D01*
X79632621Y-145984000D02*
X79002621Y-145984000D01*
X79402380Y-144145000D02*
G75*
G02*
X72862380Y-144145000I-3270000J0D01*
G01*
X72862380Y-144145000D02*
G75*
G02*
X79402380Y-144145000I3270000J0D01*
G01*
X77535000Y-149205000D02*
X75585000Y-149205000D01*
X77535000Y-149205000D02*
X79485000Y-149205000D01*
X77535000Y-154325000D02*
X75585000Y-154325000D01*
X77535000Y-154325000D02*
X79485000Y-154325000D01*
X74835000Y-149300000D02*
X74595000Y-148970000D01*
X75075000Y-148970000D01*
X74835000Y-149300000D01*
G36*
X74835000Y-149300000D02*
G01*
X74595000Y-148970000D01*
X75075000Y-148970000D01*
X74835000Y-149300000D01*
G37*
X73286252Y-130075000D02*
X72763748Y-130075000D01*
X73286252Y-131545000D02*
X72763748Y-131545000D01*
X81180000Y-142501252D02*
X81180000Y-141978748D01*
X82650000Y-142501252D02*
X82650000Y-141978748D01*
X91725000Y-133405000D02*
X91725000Y-149645000D01*
X91725000Y-133405000D02*
X99965000Y-133405000D01*
X91725000Y-149645000D02*
X99965000Y-149645000D01*
X99965000Y-133405000D02*
X99965000Y-149645000D01*
X99965000Y-136405000D02*
X99965000Y-146645000D01*
X99965000Y-136405000D02*
X108965000Y-136405000D01*
X99965000Y-146645000D02*
X108965000Y-146645000D01*
X108965000Y-136405000D02*
X108965000Y-146645000D01*
X108965000Y-138405000D02*
X108965000Y-144646000D01*
X108965000Y-138405000D02*
X124965000Y-138405000D01*
X108965000Y-144646000D02*
X124965000Y-144646000D01*
X124965000Y-138405000D02*
X124965000Y-144646000D01*
X69080748Y-134393000D02*
X69603252Y-134393000D01*
X69080748Y-135863000D02*
X69603252Y-135863000D01*
X63126252Y-147855000D02*
X62603748Y-147855000D01*
X63126252Y-149325000D02*
X62603748Y-149325000D01*
X81280000Y-132044000D02*
X80630000Y-132044000D01*
X81280000Y-132044000D02*
X81930000Y-132044000D01*
X81280000Y-135164000D02*
X80630000Y-135164000D01*
X81280000Y-135164000D02*
X81930000Y-135164000D01*
X80117500Y-132094000D02*
X79877500Y-131764000D01*
X80357500Y-131764000D01*
X80117500Y-132094000D01*
G36*
X80117500Y-132094000D02*
G01*
X79877500Y-131764000D01*
X80357500Y-131764000D01*
X80117500Y-132094000D01*
G37*
X61221252Y-131345000D02*
X60698748Y-131345000D01*
X61221252Y-132815000D02*
X60698748Y-132815000D01*
X73075436Y-136679000D02*
X73529564Y-136679000D01*
X73075436Y-138149000D02*
X73529564Y-138149000D01*
X84395000Y-150500000D02*
X84395000Y-147900000D01*
X87055000Y-147900000D02*
X84395000Y-147900000D01*
X87055000Y-150500000D02*
X84395000Y-150500000D01*
X87055000Y-150500000D02*
X87055000Y-147900000D01*
X87055000Y-151770000D02*
X87055000Y-153100000D01*
X87055000Y-153100000D02*
X85725000Y-153100000D01*
X83720000Y-136575436D02*
X83720000Y-137029564D01*
X85190000Y-136575436D02*
X85190000Y-137029564D01*
X83720000Y-140742936D02*
X83720000Y-141197064D01*
X85190000Y-140742936D02*
X85190000Y-141197064D01*
X57073748Y-147680000D02*
X58496252Y-147680000D01*
X57073748Y-149500000D02*
X58496252Y-149500000D01*
X57835436Y-128805000D02*
X58289564Y-128805000D01*
X57835436Y-130275000D02*
X58289564Y-130275000D01*
X60960000Y-134330000D02*
X60310000Y-134330000D01*
X60960000Y-134330000D02*
X61610000Y-134330000D01*
X60960000Y-137450000D02*
X60310000Y-137450000D01*
X60960000Y-137450000D02*
X61610000Y-137450000D01*
X59797500Y-134380000D02*
X59557500Y-134050000D01*
X60037500Y-134050000D01*
X59797500Y-134380000D01*
G36*
X59797500Y-134380000D02*
G01*
X59557500Y-134050000D01*
X60037500Y-134050000D01*
X59797500Y-134380000D01*
G37*
X81203748Y-129265000D02*
X82626252Y-129265000D01*
X81203748Y-131085000D02*
X82626252Y-131085000D01*
X69623000Y-138657064D02*
X69623000Y-138202936D01*
X71093000Y-138657064D02*
X71093000Y-138202936D01*
X88003748Y-135790000D02*
X88526252Y-135790000D01*
X88003748Y-137260000D02*
X88526252Y-137260000D01*
X56415000Y-137410564D02*
X56415000Y-136956436D01*
X57885000Y-137410564D02*
X57885000Y-136956436D01*
X77731252Y-129948000D02*
X77208748Y-129948000D01*
X77731252Y-131418000D02*
X77208748Y-131418000D01*
X62637936Y-145315000D02*
X63092064Y-145315000D01*
X62637936Y-146785000D02*
X63092064Y-146785000D01*
X79910000Y-137440936D02*
X79910000Y-137895064D01*
X81380000Y-137440936D02*
X81380000Y-137895064D01*
X65050936Y-132615000D02*
X65505064Y-132615000D01*
X65050936Y-134085000D02*
X65505064Y-134085000D01*
X66267064Y-128805000D02*
X65812936Y-128805000D01*
X66267064Y-130275000D02*
X65812936Y-130275000D01*
X86260000Y-132487936D02*
X86260000Y-132942064D01*
X87730000Y-132487936D02*
X87730000Y-132942064D01*
X51883000Y-134301000D02*
X53213000Y-134301000D01*
X51883000Y-135631000D02*
X51883000Y-134301000D01*
X51883000Y-136901000D02*
X51883000Y-139501000D01*
X51883000Y-136901000D02*
X54543000Y-136901000D01*
X51883000Y-139501000D02*
X54543000Y-139501000D01*
X54543000Y-136901000D02*
X54543000Y-139501000D01*
X51996000Y-145365000D02*
X51996000Y-142785000D01*
X52976000Y-142785000D02*
X51996000Y-142785000D01*
X55736000Y-142785000D02*
X56716000Y-142785000D01*
X56716000Y-142785000D02*
X56716000Y-145505000D01*
X52146000Y-145915000D02*
X51816000Y-146155000D01*
X51816000Y-145675000D01*
X52146000Y-145915000D01*
G36*
X52146000Y-145915000D02*
G01*
X51816000Y-146155000D01*
X51816000Y-145675000D01*
X52146000Y-145915000D01*
G37*
X65350000Y-145902380D02*
X71810000Y-145902380D01*
X65350000Y-145942380D02*
X71810000Y-145942380D01*
X65350000Y-145982380D02*
X71810000Y-145982380D01*
X65352000Y-145862380D02*
X71808000Y-145862380D01*
X65353000Y-145822380D02*
X71807000Y-145822380D01*
X65356000Y-145782380D02*
X71804000Y-145782380D01*
X65358000Y-145742380D02*
X67540000Y-145742380D01*
X65362000Y-145702380D02*
X67540000Y-145702380D01*
X65365000Y-145662380D02*
X67540000Y-145662380D01*
X65369000Y-145622380D02*
X67540000Y-145622380D01*
X65374000Y-145582380D02*
X67540000Y-145582380D01*
X65379000Y-145542380D02*
X67540000Y-145542380D01*
X65385000Y-145502380D02*
X67540000Y-145502380D01*
X65391000Y-145462380D02*
X67540000Y-145462380D01*
X65398000Y-145422380D02*
X67540000Y-145422380D01*
X65405000Y-145382380D02*
X67540000Y-145382380D01*
X65413000Y-145342380D02*
X67540000Y-145342380D01*
X65421000Y-145302380D02*
X67540000Y-145302380D01*
X65430000Y-145261380D02*
X67540000Y-145261380D01*
X65439000Y-145221380D02*
X67540000Y-145221380D01*
X65449000Y-145181380D02*
X67540000Y-145181380D01*
X65459000Y-145141380D02*
X67540000Y-145141380D01*
X65470000Y-145101380D02*
X67540000Y-145101380D01*
X65482000Y-145061380D02*
X67540000Y-145061380D01*
X65494000Y-145021380D02*
X67540000Y-145021380D01*
X65506000Y-144981380D02*
X67540000Y-144981380D01*
X65519000Y-144941380D02*
X67540000Y-144941380D01*
X65533000Y-144901380D02*
X67540000Y-144901380D01*
X65547000Y-144861380D02*
X67540000Y-144861380D01*
X65562000Y-144821380D02*
X67540000Y-144821380D01*
X65578000Y-144781380D02*
X67540000Y-144781380D01*
X65594000Y-144741380D02*
X67540000Y-144741380D01*
X65610000Y-144701380D02*
X67540000Y-144701380D01*
X65628000Y-144661380D02*
X67540000Y-144661380D01*
X65646000Y-144621380D02*
X67540000Y-144621380D01*
X65664000Y-144581380D02*
X67540000Y-144581380D01*
X65684000Y-144541380D02*
X67540000Y-144541380D01*
X65704000Y-144501380D02*
X67540000Y-144501380D01*
X65724000Y-144461380D02*
X67540000Y-144461380D01*
X65746000Y-144421380D02*
X67540000Y-144421380D01*
X65768000Y-144381380D02*
X67540000Y-144381380D01*
X65790000Y-144341380D02*
X67540000Y-144341380D01*
X65814000Y-144301380D02*
X67540000Y-144301380D01*
X65838000Y-144261380D02*
X67540000Y-144261380D01*
X65864000Y-144221380D02*
X67540000Y-144221380D01*
X65890000Y-144181380D02*
X67540000Y-144181380D01*
X65916000Y-144141380D02*
X67540000Y-144141380D01*
X65944000Y-144101380D02*
X67540000Y-144101380D01*
X65973000Y-144061380D02*
X67540000Y-144061380D01*
X66002000Y-144021380D02*
X67540000Y-144021380D01*
X66032000Y-143981380D02*
X67540000Y-143981380D01*
X66064000Y-143941380D02*
X67540000Y-143941380D01*
X66096000Y-143901380D02*
X67540000Y-143901380D01*
X66130000Y-143861380D02*
X67540000Y-143861380D01*
X66164000Y-143821380D02*
X67540000Y-143821380D01*
X66200000Y-143781380D02*
X67540000Y-143781380D01*
X66237000Y-143741380D02*
X67540000Y-143741380D01*
X66275000Y-143701380D02*
X67540000Y-143701380D01*
X66315000Y-143661380D02*
X70845000Y-143661380D01*
X66356000Y-143621380D02*
X70804000Y-143621380D01*
X66398000Y-143581380D02*
X70762000Y-143581380D01*
X66426000Y-149167621D02*
X67056000Y-149167621D01*
X66443000Y-143541380D02*
X70717000Y-143541380D01*
X66488000Y-143501380D02*
X70672000Y-143501380D01*
X66536000Y-143461380D02*
X70624000Y-143461380D01*
X66585000Y-143421380D02*
X70575000Y-143421380D01*
X66636000Y-143381380D02*
X70524000Y-143381380D01*
X66690000Y-143341380D02*
X70470000Y-143341380D01*
X66741000Y-149482621D02*
X66741000Y-148852621D01*
X66746000Y-143301380D02*
X70414000Y-143301380D01*
X66804000Y-143261380D02*
X70356000Y-143261380D01*
X66866000Y-143221380D02*
X70294000Y-143221380D01*
X66930000Y-143181380D02*
X70230000Y-143181380D01*
X66999000Y-143141380D02*
X70161000Y-143141380D01*
X67071000Y-143101380D02*
X70089000Y-143101380D01*
X67148000Y-143061380D02*
X70012000Y-143061380D01*
X67230000Y-143021380D02*
X69930000Y-143021380D01*
X67318000Y-142981380D02*
X69842000Y-142981380D01*
X67415000Y-142941380D02*
X69745000Y-142941380D01*
X67521000Y-142901380D02*
X69639000Y-142901380D01*
X67640000Y-142861380D02*
X69520000Y-142861380D01*
X67778000Y-142821380D02*
X69382000Y-142821380D01*
X67947000Y-142781380D02*
X69213000Y-142781380D01*
X68178000Y-142741380D02*
X68982000Y-142741380D01*
X69620000Y-143701380D02*
X70885000Y-143701380D01*
X69620000Y-143741380D02*
X70923000Y-143741380D01*
X69620000Y-143781380D02*
X70960000Y-143781380D01*
X69620000Y-143821380D02*
X70996000Y-143821380D01*
X69620000Y-143861380D02*
X71030000Y-143861380D01*
X69620000Y-143901380D02*
X71064000Y-143901380D01*
X69620000Y-143941380D02*
X71096000Y-143941380D01*
X69620000Y-143981380D02*
X71128000Y-143981380D01*
X69620000Y-144021380D02*
X71158000Y-144021380D01*
X69620000Y-144061380D02*
X71187000Y-144061380D01*
X69620000Y-144101380D02*
X71216000Y-144101380D01*
X69620000Y-144141380D02*
X71244000Y-144141380D01*
X69620000Y-144181380D02*
X71270000Y-144181380D01*
X69620000Y-144221380D02*
X71296000Y-144221380D01*
X69620000Y-144261380D02*
X71322000Y-144261380D01*
X69620000Y-144301380D02*
X71346000Y-144301380D01*
X69620000Y-144341380D02*
X71370000Y-144341380D01*
X69620000Y-144381380D02*
X71392000Y-144381380D01*
X69620000Y-144421380D02*
X71414000Y-144421380D01*
X69620000Y-144461380D02*
X71436000Y-144461380D01*
X69620000Y-144501380D02*
X71456000Y-144501380D01*
X69620000Y-144541380D02*
X71476000Y-144541380D01*
X69620000Y-144581380D02*
X71496000Y-144581380D01*
X69620000Y-144621380D02*
X71514000Y-144621380D01*
X69620000Y-144661380D02*
X71532000Y-144661380D01*
X69620000Y-144701380D02*
X71550000Y-144701380D01*
X69620000Y-144741380D02*
X71566000Y-144741380D01*
X69620000Y-144781380D02*
X71582000Y-144781380D01*
X69620000Y-144821380D02*
X71598000Y-144821380D01*
X69620000Y-144861380D02*
X71613000Y-144861380D01*
X69620000Y-144901380D02*
X71627000Y-144901380D01*
X69620000Y-144941380D02*
X71641000Y-144941380D01*
X69620000Y-144981380D02*
X71654000Y-144981380D01*
X69620000Y-145021380D02*
X71666000Y-145021380D01*
X69620000Y-145061380D02*
X71678000Y-145061380D01*
X69620000Y-145101380D02*
X71690000Y-145101380D01*
X69620000Y-145141380D02*
X71701000Y-145141380D01*
X69620000Y-145181380D02*
X71711000Y-145181380D01*
X69620000Y-145221380D02*
X71721000Y-145221380D01*
X69620000Y-145261380D02*
X71730000Y-145261380D01*
X69620000Y-145302380D02*
X71739000Y-145302380D01*
X69620000Y-145342380D02*
X71747000Y-145342380D01*
X69620000Y-145382380D02*
X71755000Y-145382380D01*
X69620000Y-145422380D02*
X71762000Y-145422380D01*
X69620000Y-145462380D02*
X71769000Y-145462380D01*
X69620000Y-145502380D02*
X71775000Y-145502380D01*
X69620000Y-145542380D02*
X71781000Y-145542380D01*
X69620000Y-145582380D02*
X71786000Y-145582380D01*
X69620000Y-145622380D02*
X71791000Y-145622380D01*
X69620000Y-145662380D02*
X71795000Y-145662380D01*
X69620000Y-145702380D02*
X71798000Y-145702380D01*
X69620000Y-145742380D02*
X71802000Y-145742380D01*
X71850000Y-145982380D02*
G75*
G02*
X65310000Y-145982380I-3270000J0D01*
G01*
X65310000Y-145982380D02*
G75*
G02*
X71850000Y-145982380I3270000J0D01*
G01*
X87630000Y-143220000D02*
X86980000Y-143220000D01*
X87630000Y-143220000D02*
X88280000Y-143220000D01*
X87630000Y-146340000D02*
X86980000Y-146340000D01*
X87630000Y-146340000D02*
X88280000Y-146340000D01*
X86467500Y-143270000D02*
X86227500Y-142940000D01*
X86707500Y-142940000D01*
X86467500Y-143270000D01*
G36*
X86467500Y-143270000D02*
G01*
X86227500Y-142940000D01*
X86707500Y-142940000D01*
X86467500Y-143270000D01*
G37*
X61645436Y-128805000D02*
X62099564Y-128805000D01*
X61645436Y-130275000D02*
X62099564Y-130275000D01*
X68861000Y-130836936D02*
X68861000Y-131291064D01*
X70331000Y-130836936D02*
X70331000Y-131291064D01*
X59470113Y-139495000D02*
X59970113Y-139495000D01*
X59720113Y-139245000D02*
X59720113Y-139745000D01*
X62274888Y-138390000D02*
X62274888Y-139930000D01*
X62274888Y-142010000D02*
X62274888Y-143550000D01*
X62314888Y-138390000D02*
X62314888Y-139930000D01*
X62314888Y-142010000D02*
X62314888Y-143550000D01*
X62354888Y-138391000D02*
X62354888Y-139930000D01*
X62354888Y-142010000D02*
X62354888Y-143549000D01*
X62394888Y-138392000D02*
X62394888Y-139930000D01*
X62394888Y-142010000D02*
X62394888Y-143548000D01*
X62434888Y-138394000D02*
X62434888Y-139930000D01*
X62434888Y-142010000D02*
X62434888Y-143546000D01*
X62474888Y-138397000D02*
X62474888Y-139930000D01*
X62474888Y-142010000D02*
X62474888Y-143543000D01*
X62514888Y-138401000D02*
X62514888Y-139930000D01*
X62514888Y-142010000D02*
X62514888Y-143539000D01*
X62554888Y-138405000D02*
X62554888Y-139930000D01*
X62554888Y-142010000D02*
X62554888Y-143535000D01*
X62594888Y-138409000D02*
X62594888Y-139930000D01*
X62594888Y-142010000D02*
X62594888Y-143531000D01*
X62634888Y-138414000D02*
X62634888Y-139930000D01*
X62634888Y-142010000D02*
X62634888Y-143526000D01*
X62674888Y-138420000D02*
X62674888Y-139930000D01*
X62674888Y-142010000D02*
X62674888Y-143520000D01*
X62714888Y-138427000D02*
X62714888Y-139930000D01*
X62714888Y-142010000D02*
X62714888Y-143513000D01*
X62754888Y-138434000D02*
X62754888Y-139930000D01*
X62754888Y-142010000D02*
X62754888Y-143506000D01*
X62794888Y-138442000D02*
X62794888Y-139930000D01*
X62794888Y-142010000D02*
X62794888Y-143498000D01*
X62834888Y-138450000D02*
X62834888Y-139930000D01*
X62834888Y-142010000D02*
X62834888Y-143490000D01*
X62874888Y-138459000D02*
X62874888Y-139930000D01*
X62874888Y-142010000D02*
X62874888Y-143481000D01*
X62914888Y-138469000D02*
X62914888Y-139930000D01*
X62914888Y-142010000D02*
X62914888Y-143471000D01*
X62954888Y-138479000D02*
X62954888Y-139930000D01*
X62954888Y-142010000D02*
X62954888Y-143461000D01*
X62995888Y-138490000D02*
X62995888Y-139930000D01*
X62995888Y-142010000D02*
X62995888Y-143450000D01*
X63035888Y-138502000D02*
X63035888Y-139930000D01*
X63035888Y-142010000D02*
X63035888Y-143438000D01*
X63075888Y-138515000D02*
X63075888Y-139930000D01*
X63075888Y-142010000D02*
X63075888Y-143425000D01*
X63115888Y-138528000D02*
X63115888Y-139930000D01*
X63115888Y-142010000D02*
X63115888Y-143412000D01*
X63155888Y-138542000D02*
X63155888Y-139930000D01*
X63155888Y-142010000D02*
X63155888Y-143398000D01*
X63195888Y-138556000D02*
X63195888Y-139930000D01*
X63195888Y-142010000D02*
X63195888Y-143384000D01*
X63235888Y-138572000D02*
X63235888Y-139930000D01*
X63235888Y-142010000D02*
X63235888Y-143368000D01*
X63275888Y-138588000D02*
X63275888Y-139930000D01*
X63275888Y-142010000D02*
X63275888Y-143352000D01*
X63315888Y-138605000D02*
X63315888Y-139930000D01*
X63315888Y-142010000D02*
X63315888Y-143335000D01*
X63355888Y-138622000D02*
X63355888Y-139930000D01*
X63355888Y-142010000D02*
X63355888Y-143318000D01*
X63395888Y-138641000D02*
X63395888Y-139930000D01*
X63395888Y-142010000D02*
X63395888Y-143299000D01*
X63435888Y-138660000D02*
X63435888Y-139930000D01*
X63435888Y-142010000D02*
X63435888Y-143280000D01*
X63475888Y-138680000D02*
X63475888Y-139930000D01*
X63475888Y-142010000D02*
X63475888Y-143260000D01*
X63515888Y-138702000D02*
X63515888Y-139930000D01*
X63515888Y-142010000D02*
X63515888Y-143238000D01*
X63555888Y-138723000D02*
X63555888Y-139930000D01*
X63555888Y-142010000D02*
X63555888Y-143217000D01*
X63595888Y-138746000D02*
X63595888Y-139930000D01*
X63595888Y-142010000D02*
X63595888Y-143194000D01*
X63635888Y-138770000D02*
X63635888Y-139930000D01*
X63635888Y-142010000D02*
X63635888Y-143170000D01*
X63675888Y-138795000D02*
X63675888Y-139930000D01*
X63675888Y-142010000D02*
X63675888Y-143145000D01*
X63715888Y-138821000D02*
X63715888Y-139930000D01*
X63715888Y-142010000D02*
X63715888Y-143119000D01*
X63755888Y-138848000D02*
X63755888Y-139930000D01*
X63755888Y-142010000D02*
X63755888Y-143092000D01*
X63795888Y-138875000D02*
X63795888Y-139930000D01*
X63795888Y-142010000D02*
X63795888Y-143065000D01*
X63835888Y-138905000D02*
X63835888Y-139930000D01*
X63835888Y-142010000D02*
X63835888Y-143035000D01*
X63875888Y-138935000D02*
X63875888Y-139930000D01*
X63875888Y-142010000D02*
X63875888Y-143005000D01*
X63915888Y-138966000D02*
X63915888Y-139930000D01*
X63915888Y-142010000D02*
X63915888Y-142974000D01*
X63955888Y-138999000D02*
X63955888Y-139930000D01*
X63955888Y-142010000D02*
X63955888Y-142941000D01*
X63995888Y-139033000D02*
X63995888Y-139930000D01*
X63995888Y-142010000D02*
X63995888Y-142907000D01*
X64035888Y-139069000D02*
X64035888Y-139930000D01*
X64035888Y-142010000D02*
X64035888Y-142871000D01*
X64075888Y-139106000D02*
X64075888Y-139930000D01*
X64075888Y-142010000D02*
X64075888Y-142834000D01*
X64115888Y-139144000D02*
X64115888Y-139930000D01*
X64115888Y-142010000D02*
X64115888Y-142796000D01*
X64155888Y-139185000D02*
X64155888Y-139930000D01*
X64155888Y-142010000D02*
X64155888Y-142755000D01*
X64195888Y-139227000D02*
X64195888Y-139930000D01*
X64195888Y-142010000D02*
X64195888Y-142713000D01*
X64235888Y-139271000D02*
X64235888Y-139930000D01*
X64235888Y-142010000D02*
X64235888Y-142669000D01*
X64275888Y-139317000D02*
X64275888Y-139930000D01*
X64275888Y-142010000D02*
X64275888Y-142623000D01*
X64315888Y-139365000D02*
X64315888Y-142575000D01*
X64355888Y-139416000D02*
X64355888Y-142524000D01*
X64395888Y-139470000D02*
X64395888Y-142470000D01*
X64435888Y-139527000D02*
X64435888Y-142413000D01*
X64475888Y-139587000D02*
X64475888Y-142353000D01*
X64515888Y-139651000D02*
X64515888Y-142289000D01*
X64555888Y-139719000D02*
X64555888Y-142221000D01*
X64595888Y-139792000D02*
X64595888Y-142148000D01*
X64635888Y-139872000D02*
X64635888Y-142068000D01*
X64675888Y-139959000D02*
X64675888Y-141981000D01*
X64715888Y-140055000D02*
X64715888Y-141885000D01*
X64755888Y-140165000D02*
X64755888Y-141775000D01*
X64795888Y-140293000D02*
X64795888Y-141647000D01*
X64835888Y-140452000D02*
X64835888Y-141488000D01*
X64875888Y-140686000D02*
X64875888Y-141254000D01*
X64894888Y-140970000D02*
G75*
G02*
X59654888Y-140970000I-2620000J0D01*
G01*
X59654888Y-140970000D02*
G75*
G02*
X64894888Y-140970000I2620000J0D01*
G01*
X77116000Y-133854564D02*
X77116000Y-133400436D01*
X78586000Y-133854564D02*
X78586000Y-133400436D01*
X57720000Y-154365000D02*
X57720000Y-153035000D01*
X59050000Y-154365000D02*
X57720000Y-154365000D01*
X60320000Y-151705000D02*
X62920000Y-151705000D01*
X60320000Y-154365000D02*
X60320000Y-151705000D01*
X60320000Y-154365000D02*
X62920000Y-154365000D01*
X62920000Y-154365000D02*
X62920000Y-151705000D01*
X81507064Y-145950000D02*
X81052936Y-145950000D01*
X81507064Y-147420000D02*
X81052936Y-147420000D01*
X65350000Y-151705000D02*
X65350000Y-154365000D01*
X67950000Y-151705000D02*
X65350000Y-151705000D01*
X67950000Y-151705000D02*
X67950000Y-154365000D01*
X67950000Y-154365000D02*
X65350000Y-154365000D01*
X69220000Y-151705000D02*
X70550000Y-151705000D01*
X70550000Y-151705000D02*
X70550000Y-153035000D01*
%LPC*%
D12*
X87315000Y-140335000D03*
X89215000Y-140335000D03*
D13*
X72722500Y-133162000D03*
X72722500Y-135062000D03*
X74597500Y-134112000D03*
D14*
X93345000Y-129540000D03*
D12*
X76200000Y-137414000D03*
X78100000Y-137414000D03*
D15*
X57150000Y-133980000D03*
X57150000Y-132080000D03*
D16*
X77382380Y-144145000D03*
D17*
X74882380Y-144145000D03*
D18*
X75060000Y-149860000D03*
X75060000Y-151130000D03*
X75060000Y-152400000D03*
X75060000Y-153670000D03*
X80010000Y-153670000D03*
X80010000Y-152400000D03*
X80010000Y-151130000D03*
X80010000Y-149860000D03*
D19*
X73975000Y-130810000D03*
X72075000Y-130810000D03*
D15*
X81915000Y-143190000D03*
X81915000Y-141290000D03*
D14*
X93345000Y-153670000D03*
D20*
X93345000Y-146525000D03*
X93345000Y-141525000D03*
X93345000Y-136525000D03*
D12*
X68392000Y-135128000D03*
X70292000Y-135128000D03*
D19*
X63815000Y-148590000D03*
X61915000Y-148590000D03*
D13*
X80342500Y-132654000D03*
X80342500Y-134554000D03*
X82217500Y-133604000D03*
D19*
X61910000Y-132080000D03*
X60010000Y-132080000D03*
D21*
X72390000Y-137414000D03*
X74215000Y-137414000D03*
D22*
X85725000Y-151770000D03*
D23*
X85725000Y-149230000D03*
D24*
X84455000Y-135890000D03*
X84455000Y-137715000D03*
X84455000Y-140057500D03*
X84455000Y-141882500D03*
D25*
X56310000Y-148590000D03*
X59260000Y-148590000D03*
D14*
X53340000Y-153035000D03*
D21*
X57150000Y-129540000D03*
X58975000Y-129540000D03*
D13*
X60022500Y-134940000D03*
X60022500Y-136840000D03*
X61897500Y-135890000D03*
D25*
X80440000Y-130175000D03*
X83390000Y-130175000D03*
D26*
X70358000Y-139342500D03*
X70358000Y-137517500D03*
D12*
X87315000Y-136525000D03*
X89215000Y-136525000D03*
D26*
X57150000Y-138096000D03*
X57150000Y-136271000D03*
D19*
X78420000Y-130683000D03*
X76520000Y-130683000D03*
D21*
X61952500Y-146050000D03*
X63777500Y-146050000D03*
D24*
X80645000Y-136755500D03*
X80645000Y-138580500D03*
D21*
X64365500Y-133350000D03*
X66190500Y-133350000D03*
D27*
X66952500Y-129540000D03*
X65127500Y-129540000D03*
D24*
X86995000Y-131802500D03*
X86995000Y-133627500D03*
D22*
X53213000Y-135631000D03*
D23*
X53213000Y-138171000D03*
D28*
X52856000Y-146095000D03*
D29*
X54356000Y-146007500D03*
D28*
X55856000Y-146095000D03*
D14*
X53340000Y-129540000D03*
D16*
X68580000Y-147232380D03*
D17*
X68580000Y-144732380D03*
D13*
X86692500Y-143830000D03*
X86692500Y-145730000D03*
X88567500Y-144780000D03*
D21*
X60960000Y-129540000D03*
X62785000Y-129540000D03*
D24*
X69596000Y-130151500D03*
X69596000Y-131976500D03*
D16*
X61274888Y-140970000D03*
D17*
X63274888Y-140970000D03*
D26*
X77851000Y-134540000D03*
X77851000Y-132715000D03*
D22*
X59050000Y-153035000D03*
D23*
X61590000Y-153035000D03*
D27*
X82192500Y-146685000D03*
X80367500Y-146685000D03*
D22*
X69220000Y-153035000D03*
D23*
X66680000Y-153035000D03*
%LPD*%
M02*
