G04 #@! TF.GenerationSoftware,KiCad,Pcbnew,9.0.0-9.0.0-2~ubuntu24.04.1*
G04 #@! TF.CreationDate,2025-03-29T11:09:29-07:00*
G04 #@! TF.ProjectId,aud_chain2,6175645f-6368-4616-996e-322e6b696361,rev?*
G04 #@! TF.SameCoordinates,Original*
G04 #@! TF.FileFunction,Soldermask,Top*
G04 #@! TF.FilePolarity,Negative*
%FSLAX46Y46*%
G04 Gerber Fmt 4.6, Leading zero omitted, Abs format (unit mm)*
G04 Created by KiCad (PCBNEW 9.0.0-9.0.0-2~ubuntu24.04.1) date 2025-03-29 11:09:29*
%MOMM*%
%LPD*%
G01*
G04 APERTURE LIST*
G04 Aperture macros list*
%AMRoundRect*
0 Rectangle with rounded corners*
0 $1 Rounding radius*
0 $2 $3 $4 $5 $6 $7 $8 $9 X,Y pos of 4 corners*
0 Add a 4 corners polygon primitive as box body*
4,1,4,$2,$3,$4,$5,$6,$7,$8,$9,$2,$3,0*
0 Add four circle primitives for the rounded corners*
1,1,$1+$1,$2,$3*
1,1,$1+$1,$4,$5*
1,1,$1+$1,$6,$7*
1,1,$1+$1,$8,$9*
0 Add four rect primitives between the rounded corners*
20,1,$1+$1,$2,$3,$4,$5,0*
20,1,$1+$1,$4,$5,$6,$7,0*
20,1,$1+$1,$6,$7,$8,$9,0*
20,1,$1+$1,$8,$9,$2,$3,0*%
%AMFreePoly0*
4,1,9,3.862500,-0.866500,0.737500,-0.866500,0.737500,-0.450000,-0.737500,-0.450000,-0.737500,0.450000,0.737500,0.450000,0.737500,0.866500,3.862500,0.866500,3.862500,-0.866500,3.862500,-0.866500,$1*%
G04 Aperture macros list end*
%ADD10RoundRect,0.250000X-0.250000X-0.475000X0.250000X-0.475000X0.250000X0.475000X-0.250000X0.475000X0*%
%ADD11RoundRect,0.150000X-0.587500X-0.150000X0.587500X-0.150000X0.587500X0.150000X-0.587500X0.150000X0*%
%ADD12C,2.200000*%
%ADD13RoundRect,0.250000X0.475000X-0.250000X0.475000X0.250000X-0.475000X0.250000X-0.475000X-0.250000X0*%
%ADD14R,1.600000X1.600000*%
%ADD15C,1.600000*%
%ADD16RoundRect,0.150000X-0.825000X-0.150000X0.825000X-0.150000X0.825000X0.150000X-0.825000X0.150000X0*%
%ADD17RoundRect,0.250000X0.250000X0.475000X-0.250000X0.475000X-0.250000X-0.475000X0.250000X-0.475000X0*%
%ADD18C,2.340000*%
%ADD19RoundRect,0.250000X-0.262500X-0.450000X0.262500X-0.450000X0.262500X0.450000X-0.262500X0.450000X0*%
%ADD20R,1.700000X1.700000*%
%ADD21O,1.700000X1.700000*%
%ADD22RoundRect,0.250000X-0.450000X0.262500X-0.450000X-0.262500X0.450000X-0.262500X0.450000X0.262500X0*%
%ADD23RoundRect,0.250000X-0.325000X-0.650000X0.325000X-0.650000X0.325000X0.650000X-0.325000X0.650000X0*%
%ADD24RoundRect,0.250000X0.450000X-0.262500X0.450000X0.262500X-0.450000X0.262500X-0.450000X-0.262500X0*%
%ADD25RoundRect,0.250000X0.262500X0.450000X-0.262500X0.450000X-0.262500X-0.450000X0.262500X-0.450000X0*%
%ADD26RoundRect,0.225000X0.225000X-0.425000X0.225000X0.425000X-0.225000X0.425000X-0.225000X-0.425000X0*%
%ADD27FreePoly0,90.000000*%
G04 APERTURE END LIST*
D10*
X87315000Y-140335000D03*
X89215000Y-140335000D03*
D11*
X72722500Y-133162000D03*
X72722500Y-135062000D03*
X74597500Y-134112000D03*
D12*
X93345000Y-129540000D03*
D10*
X76200000Y-137414000D03*
X78100000Y-137414000D03*
D13*
X57150000Y-133980000D03*
X57150000Y-132080000D03*
D14*
X77382380Y-144145000D03*
D15*
X74882380Y-144145000D03*
D16*
X75060000Y-149860000D03*
X75060000Y-151130000D03*
X75060000Y-152400000D03*
X75060000Y-153670000D03*
X80010000Y-153670000D03*
X80010000Y-152400000D03*
X80010000Y-151130000D03*
X80010000Y-149860000D03*
D17*
X73975000Y-130810000D03*
X72075000Y-130810000D03*
D13*
X81915000Y-143190000D03*
X81915000Y-141290000D03*
D12*
X93345000Y-153670000D03*
D18*
X93345000Y-146525000D03*
X93345000Y-141525000D03*
X93345000Y-136525000D03*
D10*
X68392000Y-135128000D03*
X70292000Y-135128000D03*
D17*
X63815000Y-148590000D03*
X61915000Y-148590000D03*
D11*
X80342500Y-132654000D03*
X80342500Y-134554000D03*
X82217500Y-133604000D03*
D17*
X61910000Y-132080000D03*
X60010000Y-132080000D03*
D19*
X72390000Y-137414000D03*
X74215000Y-137414000D03*
D20*
X85725000Y-151770000D03*
D21*
X85725000Y-149230000D03*
D22*
X84455000Y-135890000D03*
X84455000Y-137715000D03*
X84455000Y-140057500D03*
X84455000Y-141882500D03*
D23*
X56310000Y-148590000D03*
X59260000Y-148590000D03*
D12*
X53340000Y-153035000D03*
D19*
X57150000Y-129540000D03*
X58975000Y-129540000D03*
D11*
X60022500Y-134940000D03*
X60022500Y-136840000D03*
X61897500Y-135890000D03*
D23*
X80440000Y-130175000D03*
X83390000Y-130175000D03*
D24*
X70358000Y-139342500D03*
X70358000Y-137517500D03*
D10*
X87315000Y-136525000D03*
X89215000Y-136525000D03*
D24*
X57150000Y-138096000D03*
X57150000Y-136271000D03*
D17*
X78420000Y-130683000D03*
X76520000Y-130683000D03*
D19*
X61952500Y-146050000D03*
X63777500Y-146050000D03*
D22*
X80645000Y-136755500D03*
X80645000Y-138580500D03*
D19*
X64365500Y-133350000D03*
X66190500Y-133350000D03*
D25*
X66952500Y-129540000D03*
X65127500Y-129540000D03*
D22*
X86995000Y-131802500D03*
X86995000Y-133627500D03*
D20*
X53213000Y-135631000D03*
D21*
X53213000Y-138171000D03*
D26*
X52856000Y-146095000D03*
D27*
X54356000Y-146007500D03*
D26*
X55856000Y-146095000D03*
D12*
X53340000Y-129540000D03*
D14*
X68580000Y-147232380D03*
D15*
X68580000Y-144732380D03*
D11*
X86692500Y-143830000D03*
X86692500Y-145730000D03*
X88567500Y-144780000D03*
D19*
X60960000Y-129540000D03*
X62785000Y-129540000D03*
D22*
X69596000Y-130151500D03*
X69596000Y-131976500D03*
D14*
X61274888Y-140970000D03*
D15*
X63274888Y-140970000D03*
D24*
X77851000Y-134540000D03*
X77851000Y-132715000D03*
D20*
X59050000Y-153035000D03*
D21*
X61590000Y-153035000D03*
D25*
X82192500Y-146685000D03*
X80367500Y-146685000D03*
D20*
X69220000Y-153035000D03*
D21*
X66680000Y-153035000D03*
M02*
