M48
; DRILL file {KiCad 9.0.0-9.0.0-2~ubuntu24.04.1} date 2025-03-29T10:51:28-0700
; FORMAT={-:-/ absolute / metric / decimal}
; #@! TF.CreationDate,2025-03-29T10:51:28-07:00
; #@! TF.GenerationSoftware,Kicad,Pcbnew,9.0.0-9.0.0-2~ubuntu24.04.1
; #@! TF.FileFunction,Plated,1,2,PTH
FMAT,2
METRIC
; #@! TA.AperFunction,Plated,PTH,ViaDrill
T1C0.400
; #@! TA.AperFunction,Plated,PTH,ComponentDrill
T2C0.800
; #@! TA.AperFunction,Plated,PTH,ComponentDrill
T3C1.000
; #@! TA.AperFunction,Plated,PTH,ComponentDrill
T4C1.300
%
G90
G05
T1
X51.689Y-145.161
X51.689Y-146.812
X52.832Y-144.78
X52.832Y-147.447
X57.912Y-148.59
X58.928Y-130.81
X59.182Y-128.27
X59.182Y-150.368
X59.436Y-146.812
X60.452Y-148.59
X64.008Y-150.114
X65.024Y-148.59
X66.802Y-131.318
X68.58Y-139.446
X70.358Y-140.716
X71.755Y-128.905
X71.882Y-139.446
X72.898Y-129.032
X72.898Y-151.13
X73.152Y-153.67
X73.66Y-129.54
X73.914Y-132.08
X74.93Y-154.686
X76.962Y-153.67
X80.518Y-139.954
X80.518Y-143.256
X81.788Y-144.272
X82.296Y-132.588
X82.296Y-134.62
X85.09Y-129.54
X85.09Y-130.81
X85.09Y-132.08
X88.646Y-131.826
X88.646Y-143.764
T2
X61.275Y-140.97
X63.275Y-140.97
X68.58Y-144.732
X68.58Y-147.232
X74.882Y-144.145
X77.382Y-144.145
T3
X53.213Y-135.631
X53.213Y-138.171
X59.05Y-153.035
X61.59Y-153.035
X66.68Y-153.035
X69.22Y-153.035
X85.725Y-149.23
X85.725Y-151.77
T4
X93.345Y-136.525
X93.345Y-141.525
X93.345Y-146.525
M30
